<svg width="1231" height="563" viewBox="0 0 1231 563" fill="none" xmlns="http://www.w3.org/2000/svg">
<g clip-path="url(#clip0_23_185)">
<path fill-rule="evenodd" clip-rule="evenodd" d="M1131.7 128.555C1130.68 126.324 1128.64 124.427 1126.2 123.927C1123.56 123.385 1121.24 124.754 1119.55 126.71C1118.7 127.692 1117.98 128.776 1117.22 129.832C1116.38 131.014 1115.53 132.192 1114.67 133.366C1112.92 135.773 1111.15 138.166 1109.36 140.544C1109.21 140.735 1109.07 140.926 1108.92 141.117C1108.16 139.798 1107.08 138.672 1105.8 137.864C1104.28 136.914 1102.5 136.512 1100.73 136.526C1100.72 136.436 1100.71 136.346 1100.69 136.256C1100.11 132.622 1098.21 128.901 1094.78 127.253C1092.02 125.922 1088.53 125.747 1085.79 127.192C1086.01 124.242 1086.23 121.292 1086.45 118.342C1086.68 115.213 1086.99 112.076 1087.09 108.94C1087.18 105.96 1086.95 102.858 1085.69 100.121C1084.6 97.7595 1082.66 95.6409 1080.23 94.6494C1077.66 93.5992 1074.84 93.9358 1072.61 95.6327C1070.13 97.5231 1068.8 100.388 1068.05 103.36C1067.31 106.289 1066.91 109.326 1066.54 112.32C1065.79 118.381 1065.38 124.505 1065.41 130.612C1065.41 131.031 1065.42 131.449 1065.43 131.868C1064.31 132.067 1063.22 132.389 1062.17 132.867C1058.66 134.47 1056.04 137.497 1054.31 140.912C1050.84 147.772 1050.68 156.259 1053.81 163.253C1054.43 164.636 1055.18 165.95 1056.02 167.19C1053.33 168.896 1051.72 172.36 1052.25 175.534C1052.62 177.701 1053.83 179.795 1055.2 181.473C1056.7 183.316 1058.65 184.743 1060.57 186.112C1064.52 188.923 1068.84 191.187 1073.39 192.865C1075.7 193.719 1078.07 194.41 1080.48 194.897C1082.81 195.367 1085.24 195.72 1087.62 195.512C1090.14 195.294 1092.59 194.413 1094.36 192.539C1095.99 190.816 1096.74 188.57 1096.51 186.265C1101.5 184.694 1105.52 180.735 1107.45 175.831C1108.56 173.021 1109.04 169.969 1108.66 166.969C1113.19 164.691 1117.31 161.589 1120.79 157.883C1124.4 154.029 1127.36 149.526 1129.49 144.681C1130.59 142.193 1131.55 139.587 1132.13 136.928C1132.73 134.188 1132.89 131.158 1131.7 128.555ZM1104.42 139.155C1105.57 139.76 1106.52 140.671 1107.22 141.769C1108.93 144.472 1108.86 147.89 1108.21 150.943C1107.84 152.699 1107.3 154.437 1106.64 156.107C1105.98 157.79 1105.18 159.46 1104.07 160.896C1102.21 163.316 1099.31 165.289 1096.14 165.024C1093.38 164.793 1091.14 162.54 1090.97 159.754C1094.53 157.53 1096.59 153.529 1098.18 149.769C1099.7 146.175 1100.99 142.272 1100.88 138.335C1102.11 138.342 1103.32 138.576 1104.42 139.155ZM1093.24 128.549C1094.54 129.025 1095.67 129.841 1096.58 130.965C1097.64 132.277 1098.33 133.858 1098.72 135.496C1099.68 139.45 1098.69 143.601 1097.25 147.315C1095.86 150.915 1094.2 154.717 1091.25 157.314C1088.59 159.662 1084.18 160.667 1081.17 158.434C1080.76 157.086 1080.25 155.771 1079.65 154.51C1079.84 154.474 1080.02 154.437 1080.21 154.391C1083.65 153.534 1086.57 150.854 1087.67 147.455C1088.79 144.006 1087.42 140.429 1085 137.939C1085.21 135.106 1085.41 132.274 1085.62 129.441C1087.68 127.697 1090.81 127.659 1093.24 128.549ZM1067.99 115.337C1068.28 112.53 1068.65 109.729 1069.14 106.949C1069.64 104.073 1070.24 100.962 1072.11 98.6235C1073.59 96.7716 1075.8 95.4578 1078.22 95.9148C1080.54 96.3522 1082.46 98.0553 1083.64 100.05C1085.02 102.403 1085.32 105.262 1085.31 107.95C1085.31 110.941 1084.99 113.937 1084.77 116.918C1084.47 120.888 1084.18 124.857 1083.88 128.827C1083.88 128.873 1083.87 128.919 1083.87 128.966C1083.7 131.326 1083.52 133.687 1083.35 136.047C1083.34 136.195 1083.33 136.344 1083.32 136.491C1082.01 135.528 1080.56 134.766 1079.07 134.129C1077.26 133.356 1075.39 132.7 1073.48 132.249C1071.45 131.771 1069.31 131.52 1067.22 131.653C1067.13 126.21 1067.42 120.751 1067.99 115.337ZM1128.3 142.921C1126.39 147.526 1123.75 151.824 1120.46 155.566C1117.18 159.304 1113.27 162.461 1108.91 164.83C1108.35 165.133 1107.78 165.422 1107.21 165.7C1106.96 165.824 1106.75 166.224 1106.79 166.506C1107.61 171.6 1105.84 176.927 1102.28 180.634C1098.63 184.435 1093.25 185.942 1088.14 184.984C1085.25 184.444 1082.53 183.163 1080.35 181.173C1079.5 180.392 1078.27 181.714 1079.13 182.494C1083.3 186.314 1089.25 187.793 1094.77 186.705C1094.88 188.358 1094.28 189.968 1093.14 191.209C1091.84 192.64 1090.03 193.394 1088.14 193.643C1086 193.925 1083.84 193.68 1081.73 193.298C1079.52 192.899 1077.34 192.325 1075.22 191.608C1070.98 190.183 1066.93 188.168 1063.19 185.724C1059.72 183.459 1056.13 180.874 1054.52 176.881C1054.33 176.398 1054.16 175.901 1054.04 175.392C1054 175.232 1053.96 174.737 1053.95 174.41C1053.95 173.644 1054.1 172.854 1054.37 172.054C1054.83 170.705 1055.78 169.368 1057.08 168.621C1060.51 172.951 1065.29 176.166 1070.65 177.633C1071.53 177.875 1072.42 178.063 1073.33 178.204C1073.81 178.279 1074.29 178.02 1074.4 177.521C1074.5 177.069 1074.21 176.517 1073.73 176.442C1066.87 175.374 1060.61 171.246 1056.93 165.321C1053.2 159.321 1052.4 151.699 1054.57 144.976C1055.62 141.7 1057.44 138.509 1060.09 136.279C1062.78 134.015 1066.19 133.227 1069.63 133.459C1073.21 133.701 1076.86 134.923 1080.03 136.572C1083 138.121 1085.97 140.729 1086.26 144.313C1086.52 147.42 1084.53 150.293 1081.92 151.787C1078.88 153.523 1075.04 153.163 1071.96 151.773C1071.12 151.397 1070.32 150.945 1069.56 150.434C1069.16 150.164 1068.56 150.406 1068.35 150.806C1068.1 151.272 1068.31 151.757 1068.71 152.028C1071.36 153.803 1074.57 154.866 1077.76 154.734C1078.47 156.112 1079.05 157.568 1079.5 159.073C1079.51 159.196 1079.54 159.313 1079.6 159.418C1080.68 163.226 1080.91 167.315 1080.15 171.15C1079.92 172.288 1081.67 172.688 1081.89 171.546C1082.6 168.027 1082.52 164.34 1081.78 160.804C1084.14 161.775 1086.85 161.615 1089.25 160.631C1089.69 163.382 1091.75 165.652 1094.42 166.511C1097.85 167.613 1101.61 165.976 1104.09 163.581C1107.01 160.767 1108.55 156.692 1109.59 152.854C1110.46 149.646 1110.84 146.142 1109.76 142.974C1113.02 138.672 1116.23 134.318 1119.35 129.912C1120.57 128.19 1122.06 126.026 1124.3 125.655C1126.4 125.306 1128.43 126.675 1129.55 128.365C1130.94 130.459 1130.99 133.147 1130.57 135.557C1130.14 138.084 1129.28 140.559 1128.3 142.921Z" fill="white"/>
</g>
<g clip-path="url(#clip1_23_185)">
<path fill-rule="evenodd" clip-rule="evenodd" d="M240.301 60.2419C238.123 60.8616 236.352 62.4114 235.097 64.2564C232.953 67.4074 232.122 71.6579 233.548 75.2451C231.506 74.196 229.282 73.4873 227.006 73.1889C224.732 72.8909 222.253 72.9429 220.247 74.2024C219.361 74.7585 218.578 75.5096 218.055 76.4209C217.536 77.3256 217.337 78.332 217.405 79.3492C216.75 79.5008 216.117 79.7324 215.522 80.0667C213.532 81.1861 211.996 83.5809 212.377 85.8975C211.724 86.0948 211.089 86.3551 210.506 86.7041C209.583 87.2562 208.822 88.0259 208.237 88.9254C207.096 90.6837 206.725 92.874 206.827 94.9376C206.837 95.1306 206.856 95.3232 206.875 95.5154C204.509 94.9892 202.081 94.8025 199.585 95.1626C196.696 95.5794 193.671 96.8039 191.683 99.0176C190.75 100.056 189.998 101.394 190.031 102.827C190.07 104.458 191.142 105.802 192.538 106.552C194.032 107.355 195.759 107.438 197.422 107.413C199.113 107.387 200.798 107.369 202.488 107.461C205.853 107.644 209.195 108.147 212.464 108.954C215.907 109.805 219.182 111.103 222.514 112.294C225.707 113.436 229.029 114.405 232.451 114.425C232.719 114.427 232.987 114.419 233.255 114.408C234.656 115.989 236.695 117.038 238.747 117.463C239.806 117.682 240.896 117.742 241.966 117.558C243.115 117.361 244.221 116.799 245.196 116.177C247.466 114.728 249.281 112.651 250.873 110.506C252.362 108.499 253.566 106.247 253.869 103.739C254.157 101.345 253.425 99.0106 251.734 97.3047C251.766 97.1107 251.796 96.9164 251.82 96.7222C252.134 94.243 251.89 91.6723 251.289 89.2564C250.675 86.7909 249.637 84.4339 248.236 82.3172C247.482 81.1782 246.649 80.0842 246.028 78.8625C245.502 77.8253 245.197 76.6973 245.132 75.5344C245.003 73.2224 245.66 70.937 246.497 68.8025C246.954 67.6389 247.491 66.4975 247.58 65.2335C247.662 64.0635 247.25 62.9637 246.532 62.0564C245.06 60.1974 242.531 59.6074 240.301 60.2419ZM219.017 77.1373C219.213 76.7702 219.416 76.4873 219.686 76.1936C219.814 76.0538 219.95 75.9205 220.091 75.7939C220.246 75.6552 220.375 75.5502 220.502 75.459C222.148 74.278 224.211 74.1042 226.171 74.2839C228.432 74.491 230.67 75.1438 232.701 76.1479C233.755 76.6684 234.762 77.2826 235.704 77.9851C236.552 78.6183 237.436 79.3905 237.843 80.3963C238.27 81.452 238.024 82.6431 237.522 83.6293C237.084 84.4891 236.52 85.2922 235.916 86.0527C235.878 85.9874 235.843 85.9199 235.802 85.8558C234.92 84.4876 233.554 83.5343 232.153 82.7533C229.465 81.2548 226.529 80.1696 223.51 79.557C221.951 79.2402 220.226 79.0023 218.576 79.1626C218.542 78.4605 218.685 77.7605 219.017 77.1373ZM215.637 81.3999C216.356 80.8907 217.177 80.5921 218.037 80.4369C218.095 80.4398 218.153 80.4373 218.207 80.4228C218.228 80.4175 218.245 80.4086 218.264 80.4016C219.608 80.1994 221.033 80.3264 222.313 80.5419C225.028 80.9999 227.682 81.8499 230.155 83.0551C232.431 84.164 235.241 85.6812 235.491 88.5094C235.593 89.6636 235.286 90.8159 234.546 91.715C233.938 92.4533 233.069 93.2025 232.109 93.4471C231.594 92.0527 230.65 90.8291 229.542 89.8369C228.1 88.5443 226.391 87.5295 224.603 86.7904C221.139 85.3585 217.24 84.8787 213.543 85.6122C213.333 83.9735 214.352 82.3106 215.637 81.3999ZM246.395 64.7105C246.46 65.8704 245.965 66.9753 245.537 68.0275C244.68 70.1313 243.994 72.3502 243.93 74.6356C243.9 75.7318 244.025 76.8481 244.352 77.8957C244.744 79.1502 245.417 80.2779 246.148 81.3604C246.843 82.3913 247.563 83.4016 248.162 84.4938C248.736 85.5417 249.222 86.636 249.609 87.7674C250.377 90.0165 250.78 92.3877 250.761 94.7682C250.754 95.6321 250.684 96.5108 250.527 97.372C250.51 97.4209 250.499 97.4712 250.496 97.5225C250.227 98.9046 249.73 100.237 248.9 101.384C248.577 101.832 248.184 102.231 247.765 102.589C247.52 102.798 247.549 103.216 247.764 103.43C248.006 103.673 248.359 103.638 248.605 103.429C250.044 102.203 250.924 100.527 251.42 98.7367C251.82 99.2399 252.148 99.7977 252.365 100.41C252.673 101.28 252.782 102.19 252.734 103.11C252.618 105.337 251.598 107.395 250.352 109.204C248.997 111.17 247.377 113.092 245.471 114.544C244.541 115.252 243.48 115.897 242.358 116.243C241.508 116.506 240.599 116.533 239.722 116.426C237.947 116.209 236.169 115.455 234.806 114.268C237.316 113.917 239.744 112.96 241.657 111.259C243.878 109.284 245.154 106.256 244.767 103.288C244.675 102.579 244.479 101.909 244.199 101.253C244.072 100.958 243.645 100.884 243.388 101.031C243.082 101.205 243.036 101.546 243.162 101.843C244.188 104.241 243.533 107.141 241.989 109.173C240.137 111.609 237.037 112.897 234.059 113.169C227.351 113.78 221.206 110.218 214.967 108.395C211.869 107.49 208.693 106.869 205.484 106.516C203.871 106.339 202.249 106.234 200.626 106.201C199.014 106.169 197.392 106.302 195.783 106.194C194.335 106.096 192.818 105.667 191.863 104.506C191.066 103.537 191.074 102.27 191.617 101.18C192.201 100.007 193.192 99.0899 194.27 98.3721C195.44 97.5931 196.734 97.0358 198.09 96.6771C204.236 95.0507 210.365 97.4861 215.805 100.171C216.534 100.531 217.259 100.898 217.984 101.265C218.664 101.609 219.259 100.575 218.574 100.229C215.223 98.5327 211.737 96.8094 208.102 95.8192C207.84 94.1421 207.998 92.27 208.642 90.7058C209.003 89.8278 209.535 89.0178 210.236 88.3737C210.897 87.7662 211.714 87.3538 212.563 87.0828C214.254 86.5438 216.086 86.4075 217.85 86.4809C219.563 86.5524 221.259 86.8726 222.885 87.4116C224.528 87.9562 226.091 88.7434 227.508 89.7358C228.976 90.7636 230.386 92.139 231.001 93.8624C231.55 95.4001 231.464 97.1627 230.523 98.5372C229.563 99.9408 227.892 100.548 226.256 100.197C225.399 100.013 224.592 99.6685 223.794 99.3175C222.806 98.8832 221.823 98.4359 220.846 97.9758C218.911 97.064 216.999 96.1023 215.113 95.0918C214.637 94.837 214.163 94.5787 213.691 94.318C213.022 93.949 212.429 94.9831 213.101 95.3541C215.126 96.4719 217.181 97.535 219.265 98.5392C220.307 99.0413 221.356 99.5289 222.411 100.002C223.348 100.421 224.288 100.864 225.271 101.168C226.202 101.457 227.181 101.585 228.149 101.417C229.1 101.252 229.988 100.767 230.7 100.122C232.148 98.8106 232.719 96.8082 232.472 94.9092C232.458 94.7953 232.439 94.6826 232.418 94.5704C233.401 94.3022 234.284 93.7086 234.999 92.9832C235.865 92.1049 236.463 91.0325 236.634 89.8038C236.753 88.9547 236.692 88.0877 236.45 87.2733C237.898 85.5364 239.503 83.3884 239.217 81.033C239.06 79.7405 238.297 78.6605 237.353 77.8043C236.777 77.2822 236.148 76.8091 235.494 76.3774C233.393 73.2512 233.724 69.1564 235.472 65.9261C236.387 64.2373 237.677 62.7451 239.433 61.8527C241.261 60.9234 243.524 60.878 245.115 62.2933C245.81 62.9118 246.342 63.7603 246.395 64.7105Z" fill="white"/>
</g>
<g clip-path="url(#clip2_23_185)">
<path fill-rule="evenodd" clip-rule="evenodd" d="M1194.47 324.939C1195.95 325.362 1197.16 326.419 1198.02 327.678C1199.48 329.827 1200.05 332.726 1199.07 335.172C1200.47 334.457 1201.98 333.974 1203.54 333.77C1205.09 333.567 1206.78 333.602 1208.15 334.461C1208.75 334.841 1209.28 335.353 1209.64 335.974C1209.99 336.591 1210.13 337.278 1210.08 337.972C1210.53 338.075 1210.96 338.233 1211.37 338.461C1212.73 339.224 1213.77 340.858 1213.51 342.438C1213.96 342.572 1214.39 342.75 1214.79 342.988C1215.42 343.365 1215.94 343.89 1216.34 344.503C1217.12 345.702 1217.37 347.196 1217.3 348.604C1217.29 348.735 1217.28 348.867 1217.27 348.998C1218.88 348.639 1220.54 348.512 1222.24 348.757C1224.21 349.042 1226.27 349.877 1227.63 351.387C1228.26 352.095 1228.78 353.007 1228.75 353.985C1228.73 355.097 1228 356.014 1227.04 356.526C1226.03 357.073 1224.85 357.13 1223.71 357.112C1222.56 357.095 1221.41 357.082 1220.26 357.145C1217.96 357.27 1215.68 357.613 1213.45 358.164C1211.11 358.744 1208.87 359.63 1206.6 360.442C1204.42 361.22 1202.16 361.881 1199.82 361.895C1199.64 361.896 1199.46 361.891 1199.27 361.884C1198.32 362.962 1196.93 363.678 1195.53 363.967C1194.8 364.117 1194.06 364.158 1193.33 364.032C1192.55 363.898 1191.79 363.515 1191.13 363.09C1189.58 362.102 1188.34 360.685 1187.26 359.222C1186.24 357.853 1185.42 356.318 1185.21 354.607C1185.02 352.974 1185.52 351.382 1186.67 350.218C1186.65 350.086 1186.63 349.953 1186.61 349.821C1186.4 348.13 1186.56 346.377 1186.97 344.729C1187.39 343.047 1188.1 341.44 1189.06 339.996C1189.57 339.219 1190.14 338.473 1190.56 337.64C1190.92 336.932 1191.13 336.163 1191.17 335.37C1191.26 333.793 1190.81 332.234 1190.24 330.778C1189.93 329.985 1189.56 329.206 1189.5 328.344C1189.45 327.546 1189.73 326.796 1190.22 326.177C1191.22 324.909 1192.95 324.507 1194.47 324.939ZM1208.98 336.463C1208.85 336.213 1208.71 336.02 1208.53 335.819C1208.44 335.724 1208.35 335.633 1208.25 335.547C1208.15 335.452 1208.06 335.381 1207.97 335.318C1206.85 334.513 1205.44 334.394 1204.11 334.517C1202.56 334.658 1201.04 335.103 1199.65 335.788C1198.93 336.143 1198.25 336.562 1197.6 337.041C1197.02 337.473 1196.42 338 1196.14 338.686C1195.85 339.406 1196.02 340.218 1196.36 340.891C1196.66 341.477 1197.05 342.025 1197.46 342.544C1197.48 342.499 1197.51 342.453 1197.54 342.41C1198.14 341.476 1199.07 340.826 1200.02 340.293C1201.86 339.271 1203.86 338.531 1205.92 338.113C1206.98 337.897 1208.16 337.735 1209.29 337.844C1209.31 337.366 1209.21 336.888 1208.98 336.463ZM1211.29 339.37C1210.8 339.023 1210.24 338.819 1209.65 338.713C1209.61 338.715 1209.57 338.714 1209.54 338.704C1209.52 338.7 1209.51 338.694 1209.5 338.689C1208.58 338.552 1207.61 338.638 1206.74 338.785C1204.88 339.098 1203.07 339.677 1201.39 340.499C1199.84 341.256 1197.92 342.29 1197.75 344.219C1197.68 345.007 1197.89 345.793 1198.39 346.406C1198.81 346.909 1199.4 347.42 1200.05 347.587C1200.41 346.636 1201.05 345.802 1201.81 345.125C1202.79 344.243 1203.96 343.551 1205.17 343.047C1207.54 342.07 1210.2 341.743 1212.72 342.243C1212.86 341.126 1212.17 339.991 1211.29 339.37ZM1190.31 327.987C1190.27 328.778 1190.6 329.532 1190.9 330.25C1191.48 331.685 1191.95 333.198 1191.99 334.757C1192.01 335.504 1191.93 336.266 1191.7 336.98C1191.44 337.836 1190.98 338.605 1190.48 339.343C1190.01 340.047 1189.51 340.736 1189.11 341.481C1188.71 342.195 1188.38 342.942 1188.12 343.713C1187.6 345.247 1187.32 346.865 1187.33 348.488C1187.34 349.077 1187.39 349.677 1187.49 350.264C1187.5 350.297 1187.51 350.332 1187.51 350.367C1187.7 351.309 1188.04 352.218 1188.6 353.001C1188.82 353.306 1189.09 353.578 1189.38 353.822C1189.54 353.965 1189.52 354.25 1189.38 354.396C1189.21 354.561 1188.97 354.538 1188.8 354.395C1187.82 353.559 1187.22 352.416 1186.88 351.195C1186.61 351.538 1186.39 351.919 1186.24 352.336C1186.03 352.929 1185.95 353.55 1185.99 354.178C1186.07 355.697 1186.76 357.1 1187.61 358.334C1188.54 359.675 1189.64 360.986 1190.94 361.976C1191.58 362.459 1192.3 362.899 1193.06 363.135C1193.64 363.315 1194.26 363.333 1194.86 363.26C1196.07 363.112 1197.29 362.598 1198.22 361.788C1196.5 361.549 1194.85 360.896 1193.54 359.736C1192.03 358.389 1191.16 356.323 1191.42 354.299C1191.48 353.816 1191.62 353.359 1191.81 352.911C1191.9 352.71 1192.19 352.66 1192.36 352.76C1192.57 352.878 1192.6 353.111 1192.52 353.313C1191.82 354.949 1192.26 356.927 1193.32 358.313C1194.58 359.975 1196.69 360.853 1198.72 361.038C1203.3 361.455 1207.49 359.026 1211.75 357.783C1213.86 357.165 1216.03 356.742 1218.21 356.501C1219.31 356.38 1220.42 356.308 1221.53 356.286C1222.63 356.264 1223.73 356.355 1224.83 356.281C1225.82 356.214 1226.85 355.922 1227.5 355.13C1228.05 354.469 1228.04 353.605 1227.67 352.861C1227.27 352.062 1226.6 351.436 1225.86 350.946C1225.07 350.415 1224.18 350.035 1223.26 349.79C1219.07 348.681 1214.89 350.342 1211.17 352.173C1210.68 352.419 1210.18 352.669 1209.69 352.919C1209.23 353.154 1208.82 352.449 1209.29 352.213C1211.57 351.056 1213.95 349.88 1216.43 349.205C1216.61 348.061 1216.5 346.784 1216.06 345.717C1215.81 345.119 1215.45 344.566 1214.97 344.127C1214.52 343.712 1213.97 343.431 1213.39 343.246C1212.23 342.879 1210.98 342.786 1209.78 342.836C1208.61 342.885 1207.46 343.103 1206.35 343.471C1205.23 343.842 1204.16 344.379 1203.19 345.056C1202.19 345.757 1201.23 346.695 1200.81 347.87C1200.44 348.919 1200.49 350.121 1201.14 351.059C1201.79 352.016 1202.93 352.43 1204.05 352.191C1204.63 352.065 1205.18 351.83 1205.73 351.591C1206.4 351.295 1207.07 350.99 1207.74 350.676C1209.06 350.054 1210.36 349.398 1211.65 348.709C1211.97 348.535 1212.29 348.359 1212.62 348.181C1213.07 347.929 1213.48 348.635 1213.02 348.888C1211.64 349.65 1210.24 350.375 1208.82 351.06C1208.1 351.403 1207.39 351.735 1206.67 352.058C1206.03 352.344 1205.39 352.646 1204.72 352.853C1204.08 353.05 1203.42 353.137 1202.76 353.023C1202.11 352.91 1201.5 352.579 1201.02 352.14C1200.03 351.245 1199.64 349.88 1199.81 348.584C1199.82 348.507 1199.83 348.43 1199.84 348.353C1199.17 348.17 1198.57 347.766 1198.08 347.271C1197.49 346.672 1197.09 345.94 1196.97 345.102C1196.89 344.523 1196.93 343.932 1197.09 343.376C1196.11 342.192 1195.01 340.727 1195.21 339.12C1195.31 338.239 1195.83 337.502 1196.48 336.918C1196.87 336.562 1197.3 336.239 1197.75 335.945C1199.18 333.812 1198.95 331.02 1197.76 328.816C1197.14 327.665 1196.26 326.647 1195.06 326.038C1193.81 325.404 1192.27 325.373 1191.18 326.339C1190.71 326.76 1190.35 327.339 1190.31 327.987Z" fill="white"/>
</g>
<g clip-path="url(#clip3_23_185)">
<path fill-rule="evenodd" clip-rule="evenodd" d="M135.931 260.338C132.7 256.25 127.093 254.769 122.091 255.302C117.377 255.805 113.038 258.278 109.567 261.411C100.958 269.257 97.5165 280.765 92.6062 290.971C90.4746 295.455 88.0885 299.797 85.523 304.047C84.3677 290.873 85.8625 277.623 85.0071 264.441C84.8422 259.651 84.2242 254.79 81.9604 250.493C80.9882 248.502 79.9144 246.305 78.3222 244.733C74.0246 240.451 66.2494 240.252 61.8586 244.501C58.9822 247.315 57.2738 251.32 56.2003 255.136C54.9343 259.634 54.8643 264.301 55.0085 268.942C55.4706 279.886 54.9954 290.827 54.9309 301.773C52.2209 298.944 48.4641 297.218 44.4437 297.054C35.0481 296.663 32.8166 304.805 34.8991 312.534C33.0353 311.394 30.8498 310.795 28.5443 310.969C19.5348 311.432 17.9724 322.922 20.3967 329.801C15.8331 334.82 13.7892 341.6 13.8082 348.309C13.5051 354.523 16.0521 360.525 20.4063 364.927C15.0316 367.372 12.6549 374.674 15.9394 379.673C19.6673 385.1 26.0888 387.825 32.0169 390.165C44.2909 394.819 60.1144 398.427 71.3114 389.487C73.4533 387.657 75.6899 384.807 75.5954 381.815C95.2495 377.493 110.234 357.416 108.169 337.314C109.412 320.897 117.282 305.842 126.324 292.387C128.05 289.746 129.794 287.118 131.504 284.468C136.136 277.621 141.829 268.102 135.931 260.338ZM26.6278 314.069C26.5341 314.107 26.559 314.094 26.6278 314.069V314.069ZM22.4194 320.126C22.9128 317.917 23.815 315.939 25.6447 314.584C25.9589 314.384 26.2882 314.205 26.6348 314.067C30.8819 312.699 35.2919 314.848 37.0138 318.921C40.479 326.564 45.7892 333.827 53.1047 338.195C49.0079 341.36 45.4301 345.239 42.3714 349.365C31.9044 343.684 20.143 333.199 22.4194 320.126ZM86.6347 374.347C75.3857 381.293 60.7393 382.228 48.6928 376.781C48.019 376.479 47.1851 377.023 46.9805 377.669C46.737 378.438 47.1933 379.08 47.8689 379.381C55.6423 382.852 64.4489 383.818 72.8319 382.381C72.8221 382.436 72.8201 382.486 72.8225 382.533C72.7212 383.029 72.5406 383.504 72.3372 383.965C72.3955 383.818 72.4103 383.777 72.4017 383.793C72.0559 384.591 71.5174 385.33 70.9776 385.994C70.1767 386.903 69.2677 387.698 68.2781 388.398C58.857 394.568 46.8208 392.227 36.6917 388.914C30.3572 386.731 22.6444 384.001 18.4423 378.539C18.0742 377.988 17.7671 377.43 17.521 376.809C17.3361 376.302 17.243 375.812 17.1648 375.285C16.8851 371.48 18.9518 368.316 22.5072 366.938C25.1281 369.244 28.0735 371.164 31.1879 372.739C31.8446 373.072 32.6444 373.003 33.0752 372.338C33.4427 371.771 33.3349 370.785 32.6736 370.45C29.5451 368.868 26.4722 366.908 23.8437 364.504C23.7619 364.399 23.6671 364.316 23.5656 364.247C19.331 360.356 16.2873 354.886 16.5219 349.016C16.454 343.2 17.848 337.282 21.5204 332.692C25.3547 341.092 32.885 347.176 40.7943 351.598C40.4336 352.134 40.0746 352.671 39.7338 353.22C38.8081 354.713 41.0964 356.199 42.0228 354.706C46.3301 347.851 52.0282 341.594 59.0602 337.485C62.2315 340.182 66.3438 341.807 70.4383 342.094C72.8556 347.538 76.557 354.278 82.1879 356.835C82.866 357.126 83.694 356.599 83.9008 355.946C84.1419 355.185 83.692 354.526 83.012 354.233C80.5889 353.192 78.475 350.607 76.9313 348.368C75.5725 346.397 74.3939 344.281 73.4037 342.091C77.6561 341.802 81.9181 340.022 85.1335 337.148C86.4541 335.984 84.6207 333.963 83.3035 335.124C78.9939 338.92 72.8598 340.415 67.312 338.84C62.4257 337.62 55.2567 331.993 56.1419 326.406C56.5857 323.543 59.586 322.797 62.0083 322.226C62.1206 322.219 62.233 322.192 62.3365 322.143C66.3274 321.079 70.297 319.948 74.2804 318.859C78.3703 317.744 82.6354 316.082 86.9387 316.719C90.4637 317.432 93.6419 319.212 96.4503 321.475C114.329 335.569 103.7 364.275 86.6347 374.347ZM134.517 273.717C133.396 276.538 131.693 279.106 130.067 281.654C125.137 289.383 119.822 296.884 115.491 304.977C111.341 312.867 108.095 321.302 106.359 330.061C103.346 322.311 94.6136 314.907 86.2731 313.895C82.8952 313.582 79.5171 314.585 76.2991 315.474C71.7933 316.712 67.2949 317.975 62.7845 319.196C62.172 317.188 61.3505 315.254 60.4167 313.376C59.5425 311.805 57.2407 313.005 57.995 314.632C58.5774 315.841 59.1611 317.054 59.6286 318.313C59.8196 318.844 59.993 319.38 60.1613 319.919C51.5071 321.737 51.8541 330.005 57.031 335.511C56.5378 335.807 56.0519 336.115 55.572 336.432C45.9572 331.659 35.8177 316.09 37.077 305.184C37.211 304.474 37.4049 303.795 37.6988 303.133C37.9427 302.628 38.2494 302.135 38.6177 301.713C38.9094 301.392 39.2311 301.097 39.5829 300.841C39.5865 300.839 39.5871 300.839 39.5913 300.836C39.9881 300.582 40.4055 300.362 40.8448 300.191C46.4353 298.564 52.5928 301.585 55.1196 306.732C55.7072 307.919 57.7183 307.535 57.6937 306.155C57.5031 295.409 58.2083 284.665 57.9048 273.92C57.7671 269.048 57.355 264.104 58.0699 259.258C58.8633 254.477 60.9405 248.24 65.1292 245.386C68.1192 243.65 72.0889 243.735 75.0191 245.561C76.7492 246.661 77.7092 248.328 78.673 250.084C80.9604 253.954 82.018 258.348 82.18 262.814C83.3378 277.991 81.2606 293.299 83.304 308.423C83.4729 309.597 85.192 309.821 85.7799 308.865C88.3057 304.757 90.7871 300.622 92.9872 296.329C98.261 286.423 101.295 275.182 108.514 266.405C113.946 259.57 124.117 254.734 132.047 260.361C136.338 263.391 136.457 269.266 134.517 273.717ZM59.6509 318.372C59.6476 318.364 59.6438 318.353 59.639 318.341C59.643 318.351 59.6465 318.361 59.6509 318.372ZM59.61 318.261C59.5819 318.183 59.5592 318.119 59.6074 318.254C59.6082 318.256 59.6089 318.258 59.61 318.261Z" fill="white"/>
</g>
<g clip-path="url(#clip4_23_185)">
<path fill-rule="evenodd" clip-rule="evenodd" d="M1043.34 487.216C1041.49 492.763 1039.44 498.269 1036.52 503.35C1036.52 503.351 1036.52 503.352 1036.52 503.353C1036.52 503.353 1036.52 503.353 1036.52 503.352C1036.52 503.353 1036.52 503.353 1036.52 503.353C1034.74 506.509 1032.7 509.369 1030.43 511.873C1030.42 511.877 1030.42 511.88 1030.42 511.884C1030.21 512.107 1030.01 512.327 1029.8 512.545C1029.64 512.71 1029.49 512.873 1029.33 513.035C1029.25 513.113 1029.17 513.19 1029.1 513.267C1027.75 514.617 1026.31 515.868 1024.77 516.983C1026 516.092 1027.17 515.114 1028.27 514.071C1024.21 517.885 1019.47 520.626 1014.12 521.981C1017.95 521.054 1021.59 519.305 1024.77 516.983C1021.59 519.31 1017.94 521.06 1014.1 521.986C1010.3 522.948 1006.18 523.209 1001.78 522.648C1000.57 522.5 999.377 522.293 998.194 522.043C998.312 522.068 998.429 522.099 998.547 522.124C998.428 522.1 998.312 522.068 998.193 522.043C997.61 521.919 997.028 521.787 996.449 521.642C996.425 521.636 996.402 521.63 996.378 521.623C995.716 521.456 995.06 521.274 994.405 521.082C994.37 521.071 994.334 521.061 994.298 521.051C993.627 520.852 992.959 520.641 992.294 520.419C992.27 520.411 992.247 520.403 992.223 520.395C990.933 519.962 989.654 519.49 988.387 518.988C988.249 518.933 988.111 518.879 987.973 518.824C987.431 518.606 986.891 518.385 986.353 518.159C986.12 518.062 985.889 517.962 985.657 517.863C985.344 517.729 985.031 517.594 984.719 517.457C984.277 517.265 983.837 517.07 983.398 516.874C983.122 516.751 982.847 516.627 982.572 516.503C982.446 516.446 982.319 516.391 982.193 516.333C982.315 516.389 982.438 516.443 982.56 516.498C982.212 516.34 981.864 516.183 981.518 516.024C981.513 516.022 981.507 516.019 981.502 516.017C981.507 516.019 981.513 516.022 981.517 516.024C981.512 516.022 981.507 516.019 981.502 516.016C977.575 514.173 973.104 511.738 969.429 508.696C969.223 508.528 969.02 508.355 968.819 508.182C968.734 508.108 968.651 508.033 968.567 507.959C967.876 507.352 967.203 506.723 966.575 506.047C967.193 506.712 967.854 507.33 968.533 507.928C966.286 505.931 964.405 503.69 963.238 501.196C963.273 501.273 963.301 501.355 963.337 501.432C963.298 501.35 963.269 501.265 963.232 501.183C963.229 501.177 963.226 501.17 963.223 501.163C963.041 500.763 962.876 500.358 962.73 499.945C962.62 499.639 962.519 499.329 962.432 499.015C962.403 498.909 962.379 498.803 962.352 498.697C962.274 498.388 962.208 498.077 962.152 497.761C962.134 497.655 962.116 497.55 962.1 497.443C962.046 497.082 962.008 496.717 961.986 496.347C961.984 496.311 961.977 496.275 961.975 496.239C961.976 496.269 961.983 496.3 961.985 496.331C961.856 494.137 962.294 491.788 963.464 489.281C963.499 489.203 963.531 489.123 963.566 489.045C963.523 489.027 963.48 489.009 963.437 488.99C958.488 487.033 954.534 484.018 953.132 478.747C953.106 478.666 953.078 478.584 953.056 478.502C953.043 478.457 953.034 478.411 953.024 478.365C953.043 478.44 953.068 478.513 953.089 478.587C953.057 478.46 953.018 478.338 952.989 478.208C953.001 478.26 953.013 478.313 953.024 478.365C953.013 478.313 953.001 478.261 952.988 478.209C952.724 478.368 952.452 478.516 952.174 478.656C952.452 478.516 952.725 478.369 952.988 478.208C952.68 478.395 952.365 478.561 952.044 478.712C952.087 478.691 952.132 478.677 952.174 478.656C952.132 478.677 952.087 478.691 952.044 478.712C951.943 478.759 951.84 478.799 951.739 478.843C950.427 479.422 949.026 479.71 947.606 479.735C944.86 479.8 942.054 478.934 939.714 477.437C939.551 477.334 939.392 477.226 939.233 477.117C939.125 477.042 939.018 476.967 938.912 476.889C938.794 476.803 938.669 476.725 938.553 476.635C938.661 476.717 938.779 476.791 938.889 476.871C938.025 476.23 937.238 475.502 936.569 474.694C936.567 474.692 936.566 474.69 936.565 474.688C935.794 473.738 935.161 472.678 934.66 471.555C935.161 472.677 935.794 473.737 936.565 474.688C935.231 472.968 934.319 470.976 933.737 468.811C933.797 469.041 933.84 469.276 933.908 469.504C933.839 469.272 933.795 469.033 933.734 468.798C933.675 468.578 933.621 468.355 933.57 468.132C933.515 467.888 933.452 467.646 933.405 467.4C933.292 466.828 933.206 466.244 933.133 465.654C933.131 465.633 933.128 465.611 933.125 465.59C932.471 460.172 933.44 454.04 935 448.401C935.915 445.028 937.079 441.721 938.446 438.494C938.614 438.093 938.781 437.699 938.947 437.319C938.952 437.306 938.958 437.294 938.964 437.282C939.614 435.821 940.311 434.384 941.047 432.969C940.324 434.373 939.639 435.796 938.988 437.231C942.503 429.646 947.519 420.56 954.735 416.07C955.977 415.36 957.359 414.839 958.809 414.497C958.875 414.481 958.941 414.467 959.007 414.451C959.12 414.427 959.233 414.402 959.347 414.379C959.499 414.347 959.65 414.31 959.804 414.281C959.656 414.309 959.509 414.345 959.362 414.376C963.311 413.581 967.711 414.11 971.275 415.913C971.319 415.935 971.363 415.957 971.407 415.979C971.482 416.018 971.556 416.057 971.631 416.097C971.749 416.158 971.868 416.217 971.985 416.282C971.87 416.219 971.752 416.16 971.636 416.099C973.022 416.847 974.272 417.791 975.303 418.934C974.423 417.83 973.22 416.982 971.985 416.282C973.221 416.981 974.421 417.828 975.305 418.933C975.312 418.929 975.321 418.925 975.329 418.92C977.225 417.773 979.278 417.097 981.368 416.834C985.46 416.268 989.63 417.35 993.065 419.585C993.066 419.586 993.067 419.586 993.068 419.587C993.256 419.71 993.443 419.835 993.626 419.965C993.752 420.052 993.876 420.141 994 420.232C994.037 420.26 994.074 420.288 994.111 420.316C996.344 421.979 998.196 424.158 999.393 426.732C999.416 426.781 999.441 426.828 999.464 426.877C999.51 426.862 999.557 426.848 999.603 426.832C1001.39 426.216 1003.2 425.67 1005.02 425.306C1005.07 425.296 1005.12 425.287 1005.17 425.277C1005.54 425.206 1005.9 425.143 1006.27 425.089C1006.51 425.05 1006.74 424.998 1006.98 424.966C1006.75 424.998 1006.52 425.049 1006.28 425.087C1008.09 424.819 1009.89 424.762 1011.68 425.033C1010.14 424.772 1008.56 424.738 1006.98 424.966C1008.57 424.736 1010.15 424.772 1011.69 425.035C1013.14 425.257 1014.58 425.69 1016 426.409C1019.39 428.114 1022.49 430.875 1024.37 434.258C1024.4 434.307 1024.43 434.354 1024.46 434.404C1024.43 434.355 1024.4 434.309 1024.38 434.261C1025.05 435.475 1025.58 436.766 1025.9 438.121C1025.64 436.818 1025.11 435.56 1024.46 434.404C1025.11 435.56 1025.64 436.817 1025.9 438.12C1025.91 438.115 1025.92 438.111 1025.93 438.106C1027.05 437.465 1028.21 437.041 1029.37 436.799C1031.31 436.373 1033.36 436.463 1035.29 436.999C1035.32 437.006 1035.35 437.014 1035.38 437.022C1035.4 437.029 1035.43 437.034 1035.45 437.041C1035.43 437.034 1035.41 437.03 1035.38 437.023C1035.44 437.037 1035.49 437.054 1035.54 437.068C1035.51 437.06 1035.48 437.049 1035.45 437.041C1035.49 437.049 1035.52 437.06 1035.55 437.069C1036.9 437.432 1038.24 437.968 1039.52 438.637C1040.18 438.926 1040.79 439.251 1041.36 439.606C1040.78 439.239 1040.17 438.91 1039.52 438.637C1040.17 438.912 1040.78 439.242 1041.36 439.611C1041.39 439.626 1041.41 439.642 1041.43 439.656C1041.64 439.789 1041.84 439.926 1042.04 440.07C1042.22 440.198 1042.39 440.331 1042.56 440.465C1042.58 440.478 1042.6 440.49 1042.61 440.503C1044.36 441.899 1045.64 443.64 1046.51 445.594C1047.09 446.863 1047.5 448.216 1047.72 449.606C1047.51 448.231 1047.1 446.893 1046.52 445.637C1048.36 449.789 1048.37 454.879 1047.26 459.597C1048.07 456.344 1048.31 452.939 1047.72 449.606C1048.31 452.949 1048.07 456.364 1047.26 459.624C1046.71 461.921 1045.9 464.128 1044.91 466.093C1044.9 466.109 1044.9 466.126 1044.89 466.142C1045.26 466.923 1045.55 467.725 1045.77 468.56C1045.55 467.725 1045.26 466.924 1044.89 466.14C1045.44 467.341 1045.81 468.578 1046.04 469.836C1045.96 469.409 1045.88 468.983 1045.77 468.56C1045.88 468.986 1045.96 469.414 1046.04 469.843C1046.06 469.951 1046.07 470.059 1046.09 470.167C1046.13 470.435 1046.17 470.703 1046.2 470.972C1046.23 471.228 1046.25 471.484 1046.27 471.741C1046.28 471.864 1046.29 471.986 1046.29 472.109C1046.31 472.418 1046.32 472.729 1046.32 473.041C1046.32 473.109 1046.32 473.177 1046.32 473.245C1046.32 473.587 1046.32 473.93 1046.3 474.274C1046.3 474.305 1046.3 474.337 1046.29 474.369C1046.21 476.015 1045.97 477.67 1045.61 479.308C1045.63 479.243 1045.65 479.18 1045.66 479.115C1045.65 479.181 1045.63 479.245 1045.61 479.31C1045.5 479.832 1045.38 480.351 1045.25 480.868C1045.19 481.082 1045.14 481.296 1045.09 481.508C1044.96 481.987 1044.83 482.462 1044.69 482.934C1044.59 483.285 1044.48 483.634 1044.38 483.982C1044.32 484.173 1044.26 484.362 1044.2 484.552C1044.06 484.998 1043.92 485.444 1043.78 485.886C1043.7 486.12 1043.63 486.355 1043.55 486.586C1043.48 486.795 1043.41 487.003 1043.34 487.211C1043.32 487.264 1043.31 487.318 1043.29 487.371C1043.31 487.319 1043.32 487.267 1043.34 487.216ZM1029.74 512.605C1029.62 512.73 1029.5 512.857 1029.38 512.98C1029.5 512.855 1029.62 512.731 1029.74 512.605ZM1029.04 513.326C1028.79 513.57 1028.54 513.812 1028.29 514.048C1028.55 513.811 1028.79 513.57 1029.04 513.326ZM996.446 521.641C996.426 521.636 996.406 521.631 996.386 521.626C996.406 521.631 996.426 521.636 996.446 521.641ZM994.39 521.077C994.362 521.069 994.334 521.061 994.307 521.053C994.334 521.061 994.362 521.069 994.39 521.077ZM992.278 520.413C992.268 520.41 992.259 520.407 992.25 520.404C992.259 520.407 992.268 520.41 992.278 520.413ZM988.346 518.972C988.236 518.928 988.126 518.885 988.016 518.841C988.126 518.885 988.236 518.928 988.346 518.972ZM986.319 518.145C986.128 518.064 985.937 517.982 985.746 517.901C985.937 517.982 986.128 518.064 986.319 518.145ZM984.648 517.426C984.292 517.271 983.938 517.115 983.584 516.957C983.938 517.115 984.292 517.271 984.648 517.426ZM969.411 508.682C969.219 508.522 969.027 508.362 968.839 508.199C969.029 508.361 969.218 508.523 969.411 508.682ZM962.402 498.896C962.402 498.896 962.402 498.895 962.402 498.895C962.402 498.895 962.402 498.896 962.402 498.896ZM962.13 497.625C962.125 497.596 962.12 497.567 962.116 497.539C962.12 497.567 962.125 497.596 962.13 497.625ZM951.737 478.843C950.428 479.41 949.029 479.701 947.61 479.735C949.029 479.709 950.428 479.421 951.737 478.843ZM939.653 477.396C939.541 477.324 939.43 477.251 939.321 477.176C939.431 477.249 939.54 477.324 939.653 477.396ZM933.558 468.081C933.509 467.868 933.456 467.657 933.413 467.442C933.454 467.657 933.511 467.868 933.558 468.081ZM935.028 448.303C936.022 444.728 937.249 441.359 938.444 438.5C937.091 441.693 935.938 444.966 935.028 448.303ZM958.832 414.492C958.879 414.481 958.926 414.47 958.974 414.459C958.927 414.47 958.879 414.481 958.832 414.492ZM971.284 415.918C971.32 415.936 971.358 415.954 971.394 415.973C971.357 415.955 971.321 415.936 971.284 415.918ZM981.402 416.83C985.432 416.331 989.595 417.37 993.032 419.565C989.613 417.351 985.47 416.278 981.402 416.83ZM993.13 419.629C993.285 419.729 993.438 419.834 993.59 419.94C993.438 419.833 993.285 419.73 993.13 419.629ZM994.039 420.262C994.048 420.268 994.057 420.275 994.066 420.282C994.057 420.275 994.048 420.268 994.039 420.262ZM1005.04 425.303C1005.07 425.296 1005.11 425.29 1005.14 425.283C1005.11 425.29 1005.07 425.296 1005.04 425.303ZM1029.38 436.799C1031.33 436.395 1033.33 436.509 1035.28 436.997C1033.35 436.466 1031.31 436.374 1029.38 436.799ZM1041.46 439.675C1041.66 439.799 1041.84 439.93 1042.03 440.062C1041.84 439.928 1041.65 439.8 1041.46 439.675ZM1042.59 440.485C1042.59 440.487 1042.59 440.49 1042.6 440.492C1042.59 440.49 1042.59 440.488 1042.59 440.485ZM1045.31 449.634C1044.66 446.554 1043.08 443.63 1040.47 441.896C1037.8 440.296 1033.6 438.294 1030 439.091C1028.99 439.326 1028.02 439.72 1027.1 440.18C1026.58 440.445 1026.06 440.722 1025.54 440.987C1024.82 441.351 1023.66 441.09 1023.67 440.083C1023.6 435.051 1018.46 429.872 1013.99 428.136C1009.21 426.094 1003.88 427.913 999.192 429.507C998.558 429.722 997.901 429.378 997.666 428.767C994.529 420.22 983.245 416.183 975.623 421.577C974.932 422.059 974.141 421.653 973.822 420.974C973.844 421.021 973.857 421.049 973.865 421.068C973.865 421.067 973.865 421.066 973.864 421.065C973.868 421.067 973.875 421.076 973.875 421.087C973.878 421.096 973.875 421.09 973.872 421.085C973.871 421.083 973.872 421.088 973.871 421.085C973.87 421.083 973.87 421.082 973.869 421.08C973.771 420.891 973.511 420.475 973.329 420.28C973.328 420.279 973.326 420.277 973.325 420.275C969.217 416.214 961.83 415.336 956.599 417.776C955.394 418.399 954.294 419.212 953.27 420.1C942.786 429.661 933.167 453.085 935.793 467.2C936.069 468.536 936.484 469.847 937.073 471.078C937.073 471.079 937.073 471.079 937.073 471.08C937.494 471.907 937.999 472.694 938.599 473.401C941.915 477.066 948.278 478.855 952.493 475.67C951.135 464.977 956.452 449.873 963.844 442.081C964.978 440.93 966.643 442.458 965.646 443.667C964.991 444.326 964.383 445.031 963.813 445.764C957.514 454.133 951.731 470.334 956.285 480.308C956.718 481.158 957.243 481.965 957.863 482.692C958.463 483.368 959.142 483.952 959.884 484.464C959.9 484.474 959.922 484.488 959.955 484.51C960.646 484.939 961.356 485.338 962.078 485.711C965.507 487.449 970.221 489.237 973.522 486.378C972.977 473.709 977.682 459.51 986.526 450.291C987.603 449.184 989.411 450.763 988.327 451.877C980.047 460.353 975.144 474.895 975.982 486.658C975.991 486.706 975.998 486.754 976.001 486.803C977.535 495.307 988.863 500.082 996.062 495.513C996.373 491.513 997.869 487.666 999.319 483.956C1002.77 475.378 1007.36 467.238 1012.58 459.622C1012.95 459.082 1013.84 459.12 1014.28 459.508C1014.81 459.971 1014.75 460.671 1014.39 461.207C1008 470.803 999.982 484.46 998.406 495.869C998.214 499.023 999.727 501.822 1002.31 503.465C1003.37 504.161 1004.55 504.7 1005.75 505.105C1005.73 505.101 1005.72 505.096 1005.69 505.087C1005.71 505.094 1005.75 505.104 1005.77 505.111C1006.66 505.38 1007.57 505.645 1008.5 505.703C1009.09 505.72 1009.68 505.663 1010.25 505.551C1011.14 505.367 1012.15 504.984 1012.99 504.568C1022.39 499.42 1030.68 486.081 1036.26 476.947C1040.95 468.622 1047.24 459.661 1045.31 449.634ZM1043.44 469.056C1037.7 479.571 1020.74 510.323 1007.17 507.96C1002.16 507.065 996.859 503.625 996.184 498.211C988.103 502.245 976.876 497.584 974.089 488.982C971.608 490.584 968.674 490.547 965.864 489.803C965.53 490.477 965.252 491.179 965.006 491.89C964.667 492.943 964.444 494.036 964.365 495.139C964.331 496.013 964.396 496.897 964.556 497.756C964.763 498.697 965.099 499.604 965.505 500.475C966.124 501.682 966.902 502.793 967.784 503.821C974.133 510.609 982.922 514.268 991.4 517.577C1005.17 522.906 1019.38 521.389 1029.25 509.58C1034.07 503.995 1037.3 497.22 1039.75 490.277C1040.69 487.637 1041.62 484.997 1042.38 482.299C1043.52 478.213 1044.62 473.276 1043.44 469.056ZM1046.1 470.221C1046.13 470.466 1046.17 470.712 1046.2 470.959C1046.17 470.712 1046.13 470.467 1046.1 470.221ZM1046.27 471.78C1046.28 471.884 1046.29 471.987 1046.29 472.09C1046.29 471.987 1046.28 471.883 1046.27 471.78ZM1046.32 473.067C1046.32 473.119 1046.32 473.171 1046.32 473.223C1046.32 473.171 1046.32 473.119 1046.32 473.067ZM1046.3 474.29C1046.3 474.308 1046.3 474.325 1046.3 474.343C1046.3 474.325 1046.3 474.308 1046.3 474.29ZM1045.25 480.878C1045.19 481.085 1045.14 481.292 1045.09 481.498C1045.14 481.293 1045.19 481.085 1045.25 480.878ZM1044.68 482.952C1044.59 483.286 1044.49 483.616 1044.39 483.946C1044.49 483.616 1044.59 483.285 1044.68 482.952ZM1044.17 484.652C1044.05 485.049 1043.92 485.442 1043.79 485.832C1043.92 485.441 1044.05 485.047 1044.17 484.652ZM966.575 506.047C965.623 505.073 964.78 503.979 964.079 502.808C964.786 503.979 965.634 505.07 966.575 506.047ZM937.286 475.501C937.682 475.909 938.106 476.286 938.553 476.635C938.522 476.611 938.488 476.59 938.457 476.566C938.038 476.24 937.651 475.881 937.286 475.501ZM933.908 469.504C934.1 470.208 934.365 470.888 934.66 471.555C934.365 470.888 934.099 470.208 933.908 469.504ZM1018.83 428.107C1018.89 428.156 1018.96 428.21 1019.02 428.261C1018.91 428.177 1018.8 428.091 1018.69 428.01C1018.73 428.043 1018.78 428.074 1018.83 428.107ZM1037.4 501.743C1037.12 502.268 1036.84 502.788 1036.54 503.305C1036.87 502.74 1037.18 502.168 1037.48 501.593C1037.46 501.643 1037.43 501.694 1037.4 501.743Z" fill="white"/>
</g>
<g clip-path="url(#clip5_23_185)">
<path fill-rule="evenodd" clip-rule="evenodd" d="M714.865 14.9585C713.835 12.404 712.559 9.94102 711.11 7.59989C709.789 5.46743 708.357 3.27002 706.298 1.77515C704.205 0.255106 701.562 -0.181276 699.031 0.123149C696.445 0.433979 694.104 1.48502 691.676 2.3566C690.41 2.81115 689.111 3.20464 687.774 3.38545C686.428 3.56745 685.056 3.5536 683.704 3.45664C680.906 3.25632 678.155 2.67443 675.371 2.35362C672.875 2.06602 670.3 1.978 667.833 2.53532C666.669 2.79819 665.522 3.22504 664.509 3.85966C663.462 4.51498 662.592 5.38402 661.852 6.36506C661.165 7.27536 660.611 8.27457 660.099 9.29092C659.235 11.0266 658.703 12.9352 658.219 14.8051C657.843 16.2571 657.478 17.7323 657.242 19.2126C657.055 20.38 656.916 21.5798 657.082 22.7579C657.239 23.8753 657.909 24.7483 658.657 25.564C659.366 26.3358 660.214 26.9549 661.196 27.3275C661.981 27.6251 662.829 27.7195 663.662 27.7587C664.604 27.8029 665.556 27.8726 666.498 27.8795C667.75 27.8886 668.992 27.674 670.192 27.3226C672.802 26.5581 675.281 25.434 677.795 24.4108C680.289 23.3958 682.858 22.6316 685.517 22.1907C685.962 22.1169 686.409 22.0552 686.857 21.9987C686.907 22.0132 686.96 22.0233 687.018 22.0233C687.11 22.0233 687.206 21.9935 687.294 21.946C689.372 21.7113 691.472 21.6587 693.559 21.7728C696.284 21.9219 698.984 22.368 701.617 23.086C704.288 23.8143 706.985 24.8168 709.792 24.7761C712.03 24.7436 714.541 23.9836 715.501 21.7643C716.443 19.5881 715.707 17.0451 714.865 14.9585ZM707.993 5.09419C708.942 6.31145 709.796 7.61926 710.582 8.96311C708.805 8.98277 707.029 9.02015 705.253 9.07451C705.222 8.15245 705.2 7.22994 705.197 6.30698C705.193 5.03551 705.218 3.76419 705.268 2.49392C705.362 2.55364 705.457 2.61336 705.549 2.67755C706.491 3.33272 707.291 4.19298 707.993 5.09419ZM702.223 1.33132C702.881 1.44481 703.515 1.63202 704.119 1.88998C704.008 4.29604 704.001 6.70494 704.081 9.11145C701.531 9.20051 698.983 9.32562 696.438 9.48736C696.38 8.39313 696.323 7.29889 696.265 6.20466C696.193 4.82357 696.12 3.44249 696.048 2.06126C696.047 2.03862 696.041 2.01881 696.038 1.99751C698.03 1.35798 700.14 0.971787 702.223 1.33132ZM687.825 4.55251C690.301 4.22857 692.566 3.24426 694.89 2.39532C695.016 4.78545 695.141 7.17543 695.267 9.5657C693.856 9.66147 692.446 9.76587 691.038 9.88428C689.486 10.0147 687.935 10.1609 686.385 10.3184C686.311 9.64166 686.236 8.96489 686.162 8.28828C686.031 7.09232 685.9 5.89651 685.768 4.7007C686.452 4.68804 687.138 4.64247 687.825 4.55251ZM684.592 4.69028C684.802 6.60679 685.013 8.5233 685.223 10.4398C682.298 10.7502 679.379 11.1087 676.466 11.5138C676.409 10.2477 676.352 8.98157 676.294 7.71547C676.231 6.35434 676.164 4.99336 676.095 3.63253C678.928 4.01187 681.752 4.59466 684.592 4.69028ZM671.983 3.30443C672.962 3.31113 673.938 3.38187 674.913 3.48806C675.052 6.21747 675.176 8.94747 675.297 11.6778C673.722 11.9037 672.147 12.1419 670.576 12.3949C669.452 12.5759 668.33 12.7659 667.209 12.9607C667.242 11.5699 667.273 10.179 667.3 8.78811C667.33 7.17811 667.354 5.56796 667.363 3.95766C667.363 3.92609 667.358 3.89794 667.354 3.86919C668.845 3.42194 670.44 3.29385 671.983 3.30443ZM665.34 4.7296C665.614 4.57009 665.897 4.42874 666.185 4.30096C666.165 7.25749 666.104 10.2136 666.032 13.1694C663.864 13.5556 661.7 13.9656 659.541 14.4015C659.732 13.7018 659.937 13.0061 660.162 12.3174C660.435 11.4792 660.727 10.6593 661.114 9.88323C662.124 7.87572 663.344 5.88936 665.34 4.7296ZM662.845 26.5222C662.727 26.5093 662.8 26.5188 662.658 26.496C662.564 26.481 662.471 26.4641 662.378 26.4449C662.179 26.4043 661.982 26.3542 661.788 26.2929C660.984 26.038 660.232 25.5117 659.615 24.869C659.207 24.4435 658.813 23.9686 658.512 23.4604C658.358 23.2011 658.257 22.8037 658.218 22.4508C658.012 20.5545 658.529 18.6267 658.944 16.7942C659.031 16.4117 659.121 16.0297 659.215 15.6487C659.256 15.6477 659.298 15.6436 659.339 15.6351C661.555 15.1837 663.777 14.7604 666.003 14.361C665.94 16.9187 665.873 19.4761 665.825 22.0337C665.796 23.5839 665.774 25.1343 665.762 26.6849C665.178 26.6594 664.593 26.6179 664.011 26.5986C663.621 26.5858 663.233 26.5651 662.845 26.5222ZM670.338 26.0509C669.231 26.4017 668.101 26.6615 666.937 26.6998C666.97 22.5159 667.078 18.3333 667.18 14.1504C669.896 13.675 672.62 13.2411 675.349 12.8478C675.446 15.0345 675.542 17.2213 675.644 19.4077C675.714 20.9251 675.788 22.4423 675.865 23.9593C675.249 24.216 674.633 24.4732 674.013 24.7226C672.806 25.2083 671.579 25.6577 670.338 26.0509ZM681.492 21.8826C679.959 22.3124 678.483 22.8827 677.017 23.4832C676.837 19.8836 676.678 16.2829 676.518 12.6822C677.613 12.5292 678.709 12.3806 679.807 12.2416C681.652 12.0078 683.5 11.7951 685.35 11.5996C685.571 13.6093 685.792 15.6191 686.012 17.6287C686.131 18.7129 686.25 19.797 686.369 20.8813C684.724 21.102 683.093 21.4335 681.492 21.8826ZM687.53 20.7459C687.19 17.6574 686.851 14.5688 686.512 11.4801C689.447 11.1831 692.385 10.9335 695.328 10.7338C695.437 12.8192 695.547 14.9046 695.656 16.9899C695.723 18.2593 695.789 19.5285 695.856 20.7979C693.092 20.4899 690.295 20.4635 687.53 20.7459ZM701.076 21.7308C699.779 21.4069 698.466 21.1494 697.142 20.9593C697.108 20.9544 697.073 20.9505 697.039 20.9456C696.859 17.5165 696.679 14.0874 696.499 10.6581C697.663 10.5844 698.827 10.5153 699.991 10.4569C701.367 10.3878 702.744 10.3332 704.122 10.2854C704.251 13.1132 704.504 15.9357 704.868 18.743C705.051 20.1527 705.261 21.5585 705.495 22.9604C705.358 22.9244 705.221 22.888 705.086 22.8513C703.746 22.4874 702.423 22.0674 701.076 21.7308ZM714.385 21.395C713.951 22.2688 713.176 22.8676 712.265 23.1917C710.484 23.8253 708.567 23.6537 706.732 23.258C705.989 18.9546 705.495 14.6073 705.297 10.2451C707.279 10.185 709.26 10.1455 711.242 10.1284C711.519 10.6307 711.788 11.1358 712.048 11.6414C712.644 12.7982 713.205 13.9781 713.697 15.1833C714.133 16.2528 714.512 17.3667 714.683 18.5124C714.824 19.4586 714.819 20.5195 714.385 21.395Z" fill="white"/>
</g>
<g clip-path="url(#clip6_23_185)">
<path fill-rule="evenodd" clip-rule="evenodd" d="M306.899 484.708C306.737 484.768 306.571 484.797 306.407 484.797C305.84 484.797 305.306 484.452 305.095 483.893C305.077 483.848 303.355 479.409 298.969 475.176C293.132 469.543 285.566 466.901 276.464 467.332C275.69 467.37 275.033 466.773 274.997 466.002C274.96 465.232 275.558 464.578 276.331 464.541C288.726 463.964 296.598 468.963 301.017 473.263C305.809 477.928 307.644 482.709 307.72 482.909C307.992 483.632 307.625 484.437 306.899 484.708ZM297.03 498.554V542.51C297.03 553.646 287.934 562.705 276.753 562.705C271.644 562.705 266.714 560.765 262.984 557.332C259.253 560.765 254.323 562.705 249.214 562.705C238.033 562.705 228.936 553.646 228.936 542.51V498.554C228.936 487.419 238.033 478.359 249.214 478.359C254.323 478.359 259.253 480.3 262.984 483.732C266.714 480.3 271.644 478.359 276.753 478.359C287.934 478.359 297.03 487.419 297.03 498.554ZM249.214 479.957C238.901 479.957 230.541 488.283 230.541 498.554V542.51C230.541 552.781 238.901 561.107 249.214 561.107C254.665 561.107 259.569 558.78 262.984 555.07C266.397 558.78 271.302 561.107 276.753 561.107C287.066 561.107 295.426 552.781 295.426 542.51V498.554C295.426 488.283 287.066 479.957 276.753 479.957C271.302 479.957 266.397 482.285 262.984 485.995C259.569 482.285 254.665 479.957 249.214 479.957ZM254.442 557.1C251.628 557.1 254.829 549.545 254.829 540.225V521.645L252.426 520.053C251.939 519.73 251.91 518.7 252.378 518.316L254.829 516.305V500.339C254.829 491.019 251.328 483.464 254.442 483.464C260.595 483.464 265.582 491.019 265.582 500.339V540.225C265.582 549.545 260.595 557.1 254.442 557.1ZM282.368 516.305V500.339C282.368 491.019 278.867 483.464 281.98 483.464H281.98C288.133 483.464 293.121 491.019 293.121 500.339V540.225C293.121 549.545 288.133 557.1 281.98 557.1H281.98C279.167 557.1 282.368 549.545 282.368 540.225V521.645L279.965 520.053C279.478 519.73 279.449 518.7 279.916 518.316L282.368 516.305ZM249.503 466.83C227.747 465.805 220.94 483.214 220.873 483.389C220.662 483.95 220.128 484.296 219.56 484.296C219.396 484.296 219.23 484.267 219.068 484.207C218.343 483.936 217.975 483.131 218.247 482.409C218.323 482.208 220.158 477.427 224.95 472.762C229.368 468.462 237.238 463.461 249.635 464.04C250.409 464.076 251.007 464.731 250.97 465.501C250.933 466.272 250.288 466.873 249.503 466.83Z" fill="white"/>
</g>
<defs>
<clipPath id="clip0_23_185">
<rect width="76" height="98" fill="white" transform="translate(1064.63 91) rotate(12.7523)"/>
</clipPath>
<clipPath id="clip1_23_185">
<rect width="70.0588" height="50.4928" fill="white" transform="translate(188 102.539) rotate(-45)"/>
</clipPath>
<clipPath id="clip2_23_185">
<rect width="47.7838" height="34.4388" fill="white" transform="matrix(-0.707107 -0.707107 -0.707107 0.707107 1230.14 353.788)"/>
</clipPath>
<clipPath id="clip3_23_185">
<rect width="99" height="158" fill="white" transform="translate(47.7148 230) rotate(17.5773)"/>
</clipPath>
<clipPath id="clip4_23_185">
<rect width="117" height="96" fill="white" transform="translate(957.885 398) rotate(25.8689)"/>
</clipPath>
<clipPath id="clip5_23_185">
<rect width="59" height="28" fill="white" transform="translate(656.999)"/>
</clipPath>
<clipPath id="clip6_23_185">
<rect width="90" height="99" fill="white" transform="translate(218 464)"/>
</clipPath>
</defs>
</svg>
