<svg width="1221" height="640" viewBox="0 0 1221 640" fill="none" xmlns="http://www.w3.org/2000/svg">
<path fill-rule="evenodd" clip-rule="evenodd" d="M668.521 240.55C659.712 246.939 650.946 250.485 644.978 250.484C642.218 250.484 640.055 249.726 638.765 248.139L636.983 245.948C637.357 246.133 637.758 246.292 638.19 246.423C638.256 246.443 638.327 246.457 638.394 246.476C638.409 246.48 638.425 246.483 638.44 246.488C638.752 246.573 639.076 246.643 639.41 246.7C639.441 246.705 639.472 246.711 639.503 246.715C640.033 246.801 640.591 246.851 641.174 246.867C641.209 246.868 641.244 246.87 641.28 246.87C641.386 246.873 641.488 246.88 641.595 246.88C643.181 246.88 644.943 246.639 646.833 246.175C646.847 246.171 646.861 246.169 646.875 246.165C646.901 246.159 646.927 246.151 646.952 246.145C647.237 246.074 647.526 245.997 647.816 245.916C647.878 245.899 647.938 245.883 648 245.865C648.309 245.777 648.622 245.683 648.937 245.584C649.018 245.558 649.099 245.531 649.18 245.505C649.434 245.423 649.69 245.337 649.948 245.248C650.033 245.218 650.118 245.19 650.204 245.16C650.517 245.049 650.833 244.933 651.151 244.812C651.237 244.779 651.322 244.745 651.408 244.712C651.679 244.607 651.951 244.499 652.225 244.386C652.299 244.356 652.373 244.326 652.448 244.295C652.786 244.155 653.127 244.008 653.47 243.857C653.526 243.832 653.582 243.807 653.637 243.782C653.962 243.637 654.289 243.487 654.618 243.332C654.654 243.315 654.691 243.298 654.727 243.281C655.104 243.102 655.483 242.918 655.864 242.727C655.867 242.725 655.87 242.723 655.874 242.722C658.992 241.158 662.233 239.183 665.461 236.842C675.178 229.794 682.698 220.959 685.815 213.676C685.821 213.662 685.828 213.648 685.833 213.634C685.895 213.49 685.954 213.347 686.012 213.205C686.021 213.18 686.032 213.155 686.042 213.13C686.095 212.997 686.147 212.865 686.197 212.733C686.21 212.699 686.223 212.665 686.236 212.632C686.283 212.508 686.327 212.386 686.371 212.263C686.386 212.221 686.401 212.179 686.416 212.138C686.457 212.022 686.495 211.908 686.534 211.793C686.55 211.745 686.566 211.698 686.581 211.65C686.617 211.541 686.65 211.433 686.684 211.325C686.7 211.273 686.716 211.221 686.731 211.169C686.762 211.066 686.791 210.964 686.82 210.861C686.835 210.805 686.851 210.749 686.866 210.693C686.893 210.596 686.917 210.499 686.942 210.403C686.957 210.343 686.972 210.283 686.986 210.224C687.008 210.131 687.03 210.039 687.05 209.948C687.064 209.885 687.078 209.823 687.091 209.761C687.109 209.674 687.127 209.587 687.143 209.5C687.156 209.435 687.168 209.369 687.18 209.304C687.195 209.222 687.209 209.14 687.222 209.058C687.233 208.99 687.243 208.923 687.253 208.856C687.264 208.777 687.275 208.699 687.285 208.622C687.294 208.552 687.302 208.483 687.31 208.413C687.318 208.34 687.326 208.266 687.333 208.193C687.34 208.121 687.346 208.05 687.351 207.979C687.356 207.909 687.361 207.84 687.365 207.771C687.37 207.698 687.373 207.625 687.376 207.552C687.378 207.487 687.381 207.422 687.382 207.357C687.383 207.282 687.384 207.207 687.384 207.133C687.383 207.072 687.383 207.011 687.382 206.95C687.381 206.873 687.378 206.797 687.375 206.721C687.372 206.665 687.37 206.608 687.366 206.552C687.362 206.473 687.355 206.395 687.348 206.317C687.344 206.266 687.34 206.214 687.334 206.163C687.326 206.082 687.315 206.002 687.305 205.922C687.299 205.875 687.293 205.828 687.286 205.781C687.273 205.698 687.258 205.617 687.243 205.535C687.235 205.493 687.228 205.451 687.22 205.409C687.202 205.323 687.183 205.239 687.163 205.155C687.154 205.119 687.146 205.082 687.137 205.046C687.132 205.027 687.128 205.006 687.123 204.986L688.9 207.171C689.27 207.626 689.568 208.153 689.784 208.737C692.421 215.863 682.882 230.134 668.521 240.55ZM665.124 236.373C656.315 242.762 647.549 246.308 641.581 246.307C641.443 246.307 641.308 246.304 641.173 246.3C641.098 246.298 641.022 246.295 640.947 246.292C640.853 246.287 640.76 246.283 640.668 246.277C639.836 246.219 639.062 246.087 638.357 245.872C638.119 245.8 637.891 245.718 637.672 245.628C637.666 245.626 637.66 245.623 637.653 245.621C637.448 245.536 637.253 245.442 637.065 245.342C637.035 245.326 637.005 245.309 636.976 245.292C636.802 245.196 636.636 245.095 636.478 244.985C636.444 244.962 636.412 244.936 636.379 244.912C636.253 244.821 636.134 244.726 636.019 244.626C635.979 244.592 635.938 244.56 635.899 244.525C635.776 244.412 635.66 244.292 635.549 244.169C635.506 244.122 635.464 244.074 635.423 244.026C635.027 243.553 634.71 243.012 634.483 242.398C631.847 235.272 641.385 221.001 655.746 210.585C666.153 203.037 676.66 199.309 682.512 201.088C683.963 201.53 685.059 202.297 685.784 203.377C685.786 203.379 685.787 203.382 685.789 203.384C685.897 203.545 685.994 203.715 686.085 203.89C686.104 203.926 686.122 203.962 686.14 203.998C686.23 204.18 686.314 204.367 686.386 204.562C686.675 205.341 686.817 206.206 686.824 207.142C686.877 214.763 677.913 227.097 665.124 236.373ZM654.829 222.067C654.218 220.608 652.131 220.584 650.162 222.013C650.156 222.017 650.15 222.021 650.144 222.025C648.17 223.467 647.065 225.823 647.679 227.287C648.288 228.748 650.374 228.772 652.346 227.343C652.352 227.338 652.358 227.334 652.363 227.33C654.338 225.888 655.442 223.532 654.829 222.067ZM669.462 211.488C668.961 209.942 666.949 209.846 664.967 211.274C664.962 211.278 664.955 211.283 664.95 211.287C662.98 212.715 661.791 215.115 662.289 216.656C662.792 218.201 664.804 218.297 666.784 216.871C666.79 216.866 666.796 216.862 666.802 216.858C668.771 215.429 669.961 213.029 669.462 211.488ZM671.37 225.628C672.376 224.898 673.252 223.754 673.518 223.007C673.984 221.702 672.759 220.905 670.28 221.553C671.616 219.779 672.474 218.217 673.023 217.001C673.418 216.125 673.653 215.427 673.788 214.956L675.418 215.01C675.532 215.015 675.695 214.944 675.847 214.833C675.933 214.771 676.016 214.696 676.084 214.615C676.273 214.39 676.283 214.203 676.104 214.198L673.829 214.119C673.719 214.115 673.555 214.184 673.399 214.297C673.378 214.312 673.357 214.328 673.336 214.345C673.161 214.488 673.037 214.659 673.017 214.782L673.017 214.784C673.003 214.868 672.681 216.641 671.147 219.253C670.384 220.557 669.319 222.069 667.845 223.691C666.37 225.312 664.488 227.045 662.056 228.81C659.584 230.601 657.459 231.764 655.644 232.514C652.924 233.636 650.894 233.825 649.545 233.727C648.872 233.679 648.369 233.559 648.036 233.451C647.871 233.398 647.746 233.348 647.665 233.313C647.625 233.293 647.594 233.279 647.574 233.269L647.554 233.257L647.55 233.254L647.548 233.254C647.464 233.207 647.292 233.251 647.111 233.367C647.088 233.381 647.067 233.396 647.045 233.411C646.888 233.525 646.754 233.672 646.694 233.8L645.426 236.449C645.327 236.655 645.44 236.753 645.681 236.666C645.768 236.635 645.859 236.583 645.946 236.521C646.098 236.41 646.234 236.265 646.298 236.132L647.205 234.236C647.784 234.429 648.875 234.666 650.507 234.518C651.784 234.4 653.393 234.046 655.349 233.24C657.305 232.433 659.602 231.172 662.226 229.269C664.068 227.933 665.635 226.597 666.957 225.306C667.324 225.399 667.961 225.566 668.232 225.682C668.656 225.862 668.566 226.147 668.949 226.296C668.992 226.311 669.8 226.602 671.021 225.861C671.138 225.789 671.255 225.711 671.37 225.628Z" fill="#F5DF4D"/>
<path fill-rule="evenodd" clip-rule="evenodd" d="M988.652 625.991C951.453 656.911 905.421 673.167 865.528 669.476C839.359 667.056 817.774 656.43 803.103 638.751C764.824 592.575 785.736 511.746 849.731 458.549C885.751 428.607 930.049 412.415 969.046 414.773C969.11 414.776 969.175 414.782 969.24 414.786C970.449 414.861 971.654 414.952 972.853 415.063C992.199 416.853 1009.04 423.131 1022.43 433.424C1022.51 433.485 1022.59 433.542 1022.67 433.604C1023.6 434.322 1024.5 435.069 1025.39 435.826C1025.59 435.995 1025.8 436.154 1026 436.326C1026.78 437 1027.53 437.703 1028.29 438.407C1028.58 438.681 1028.88 438.942 1029.17 439.221C1029.83 439.849 1030.45 440.504 1031.09 441.155C1031.45 441.535 1031.83 441.902 1032.19 442.288C1032.73 442.871 1033.26 443.478 1033.78 444.079C1034.26 444.627 1034.76 445.162 1035.23 445.725L1035.28 445.796C1073.55 491.974 1052.64 572.797 988.652 625.991ZM888.526 532.449C878.398 517.211 859.44 512.699 846.177 522.369C845.708 522.71 845.254 523.064 844.812 523.431C832.755 533.456 830.735 552.765 840.506 567.459C850.633 582.697 869.594 587.212 882.854 577.545C883.322 577.204 883.777 576.849 884.218 576.482C896.277 566.459 898.295 547.149 888.526 532.449ZM964.332 473.329C963.186 472.856 961.927 472.502 960.58 472.328C957.891 471.955 954.885 472.163 951.829 472.891C951.067 473.082 950.311 473.325 949.54 473.551C949.159 473.673 948.766 473.781 948.389 473.931L947.255 474.38C946.503 474.698 944.911 474.98 944.985 475.349C944.247 475.716 943.511 476.1 942.777 476.487C942.408 476.687 942.032 476.869 941.677 477.084L940.619 477.74C939.913 478.183 939.213 478.644 938.511 479.092C937.151 480.05 935.855 481.077 934.543 482.093C933.309 483.197 932.061 484.281 930.875 485.449C930.303 486.055 929.723 486.658 929.164 487.271L928.322 488.195C928.043 488.501 927.799 488.844 927.537 489.164C927.019 489.818 926.509 490.475 926.013 491.134C925.517 491.792 925.098 492.504 924.648 493.187L923.999 494.219C923.781 494.563 923.607 494.926 923.42 495.281C923.055 495.996 922.673 496.699 922.345 497.413C921.072 500.283 920.315 503.199 920.185 505.913C920.107 507.268 920.224 508.572 920.474 509.789C920.767 510.994 921.175 512.145 921.904 513.062C922.358 511.702 922.888 510.441 923.428 509.216C923.742 508.595 923.964 508.01 924.301 507.414C924.46 507.119 924.6 506.83 924.746 506.541C924.883 506.255 925.07 505.969 925.227 505.686C926.502 503.424 927.918 501.338 929.437 499.378C932.567 495.491 936.066 492.039 940.051 488.725C944.041 485.423 948.067 482.616 952.462 480.253C954.666 479.124 956.969 478.108 959.424 477.268C959.732 477.166 960.047 477.034 960.352 476.953C960.661 476.86 960.973 476.777 961.293 476.675C961.936 476.451 962.554 476.342 963.223 476.14C964.52 475.836 965.861 475.545 967.281 475.341C966.516 474.45 965.465 473.834 964.332 473.329ZM1000.48 505.59C999.212 502.133 997.643 498.855 995.791 495.8C993.944 492.744 991.809 489.886 989.281 487.411C990.159 488.958 990.944 490.549 991.653 492.185C992.38 493.806 993.031 495.473 993.636 497.158C994.828 500.534 995.815 504.002 996.525 507.578C997.957 514.717 998.397 522.234 997.524 529.95C997.49 530.428 997.416 530.914 997.343 531.398L997.128 532.853C997.054 533.337 996.996 533.818 996.91 534.304L996.613 535.767L996.321 537.224L996.18 537.952L995.995 538.683L995.258 541.609L994.354 544.535C994.074 545.508 993.7 546.485 993.349 547.456L992.815 548.915L992.553 549.645L992.241 550.37L991 553.278C989.188 557.126 987.278 560.973 984.874 564.697C983.764 566.584 982.462 568.411 981.216 570.258C980.617 571.188 979.894 572.077 979.228 572.98L977.191 575.689L975.025 578.327C974.301 579.199 973.61 580.104 972.828 580.936C971.294 582.63 969.806 584.365 968.165 585.961C965.027 589.297 961.554 592.314 958.027 595.25C954.461 598.149 950.698 600.769 946.849 603.239L943.912 604.995L943.176 605.434L942.428 605.843L940.928 606.656L939.433 607.481C938.931 607.745 938.419 607.988 937.916 608.243L936.395 609C935.886 609.255 935.377 609.51 934.86 609.732C926.669 613.56 918.161 616.316 909.663 618.184C905.404 619.122 901.156 619.809 896.923 620.305C894.807 620.546 892.693 620.744 890.596 620.867C888.494 621.008 886.404 621.073 884.331 621.055C888.112 621.935 892.156 622.359 896.305 622.491C900.45 622.626 904.725 622.452 909.085 621.984C917.792 621.027 926.869 618.841 935.874 615.234C940.366 613.414 944.837 611.266 949.205 608.785C951.354 607.483 953.551 606.239 955.631 604.776L957.213 603.712L958.003 603.176L958.77 602.613L961.845 600.332C962.868 599.574 963.832 598.735 964.826 597.932C965.212 597.613 965.6 597.296 965.985 596.976C966.581 596.481 967.172 595.977 967.737 595.448L970.575 592.884C971.51 592.017 972.388 591.106 973.297 590.216C975.137 588.449 976.786 586.552 978.49 584.689C979.36 583.77 980.121 582.788 980.928 581.829L983.313 578.943L985.531 575.963C986.264 574.963 987.039 573.989 987.701 572.958C989.062 570.915 990.489 568.899 991.683 566.794C992.294 565.747 992.948 564.714 993.519 563.657L995.196 560.475C995.779 559.418 996.256 558.341 996.754 557.267L997.487 555.661C997.727 555.121 997.987 554.59 998.184 554.043C999.959 549.732 1001.34 545.392 1002.35 541.095C1003.31 536.801 1003.84 532.571 1004.02 528.448C1004.31 520.217 1003 512.517 1000.48 505.59ZM1020.04 428.47C1019.52 428.116 1018.99 427.767 1018.46 427.423C1017.9 427.056 1017.33 426.689 1016.75 426.334C1016.22 426.004 1015.67 425.688 1015.12 425.369C1014.1 424.769 1013.06 424.188 1012 423.627C1011.57 423.4 1011.15 423.171 1010.71 422.95C1010 422.586 1009.29 422.231 1008.56 421.885C1008.22 421.721 1007.87 421.564 1007.52 421.404C1006.05 420.723 1004.55 420.077 1003.03 419.467C1002.8 419.374 1002.57 419.278 1002.33 419.186C1001.47 418.85 1000.6 418.528 999.729 418.215C999.475 418.124 999.221 418.037 998.966 417.948C996.132 416.961 993.218 416.091 990.226 415.342C990.082 415.305 989.937 415.269 989.791 415.233C984.446 413.919 978.875 412.963 973.07 412.426C932.507 408.671 885.754 425.151 848.031 456.508C790.252 504.538 767.166 574.904 790.105 623.185C752.946 576.848 774.013 496.796 837.548 443.983C874.748 413.062 920.765 396.804 960.671 400.497C986.058 402.845 1007.13 412.915 1021.77 429.66C1021.71 429.618 1021.65 429.58 1021.59 429.539C1021.08 429.175 1020.56 428.824 1020.04 428.47Z" fill="#F5DF4D"/>
<path fill-rule="evenodd" clip-rule="evenodd" d="M106.213 650.917C105.308 651.588 104.34 652.119 103.317 652.515C103.286 652.527 103.256 652.538 103.225 652.55C99.8018 653.844 95.7493 653.61 91.238 651.859C91.1405 651.821 91.0415 651.781 90.9436 651.741C90.6512 651.624 90.3566 651.498 90.0606 651.368C89.865 651.282 89.6697 651.196 89.4723 651.104C89.2969 651.023 89.1196 650.935 88.9428 650.85C88.2691 650.522 87.5876 650.169 86.8939 649.778C63.084 636.353 36.0864 589.887 26.7127 546.198C21.5503 522.135 22.7628 502.919 29.5499 493.95C29.5513 493.948 29.5527 493.947 29.5536 493.945C29.8021 493.617 30.0586 493.305 30.322 493.005C30.3597 492.961 30.3984 492.92 30.4368 492.878C30.6643 492.624 30.8976 492.38 31.1362 492.147C31.203 492.081 31.2702 492.018 31.338 491.955C31.5515 491.754 31.7697 491.561 31.992 491.376C32.083 491.3 32.1755 491.226 32.2681 491.153C32.4531 491.007 32.6423 490.871 32.8328 490.737C33.0112 490.611 33.1915 490.491 33.3753 490.376C33.5289 490.278 33.6837 490.184 33.8413 490.093C34.0713 489.963 34.305 489.842 34.5424 489.726C34.6599 489.669 34.776 489.61 34.8957 489.556C35.6367 489.226 36.4073 488.965 37.2092 488.785C41.385 487.846 46.3648 488.94 51.8857 492.054C75.6955 505.478 102.692 551.944 112.066 595.634C117.883 622.745 115.64 643.928 106.213 650.917ZM50.6469 516.079C50.6388 516.074 50.6303 516.069 50.6218 516.065C48.7135 515.094 50.1315 528.132 53.7893 545.181C57.4312 562.154 61.9203 576.708 63.8425 577.791C63.8511 577.796 63.8597 577.801 63.8681 577.805C65.7751 578.775 64.3571 565.737 60.6994 548.689C57.0579 531.715 52.5682 517.161 50.6469 516.079ZM71.379 527.767C71.3704 527.763 71.3619 527.758 71.3534 527.754C69.4451 526.784 70.8643 539.821 74.5221 556.87C78.1642 573.844 82.6523 588.396 84.5747 589.48C84.5828 589.485 84.5918 589.49 84.5998 589.494C86.5086 590.464 85.0893 577.426 81.431 560.378C77.789 543.404 73.3012 528.851 71.379 527.767ZM103.993 589.024C102.576 588.225 100.556 586.645 97.9707 583.529L97.9028 584.832C99.4734 586.725 100.846 588.091 102.019 589.076C102.157 592.06 102.477 602.51 100.825 611.721C99.6919 618.05 97.8616 622.561 95.3888 625.136C92.3172 628.336 88.2306 628.533 83.2447 625.722C78.2583 622.911 72.9519 617.418 67.4715 609.396C63.0613 602.94 58.5264 594.84 53.991 585.315C47.3954 571.465 42.7056 558.564 41.4174 554.917C42.4412 555.174 43.5375 555.198 44.6269 554.794L43.9048 553.046C42.1284 553.702 40.3245 553.127 38.9073 552.328C37.309 551.426 36.2015 550.24 36.1802 550.217L36.193 551.615C36.2864 551.717 37.5218 553.048 39.2754 554.037C39.6405 554.243 40.0287 554.434 40.433 554.596C41.5756 557.85 46.4234 571.323 53.3236 585.819C57.9738 595.588 62.6376 603.919 67.1842 610.577C72.8992 618.948 78.4405 624.682 83.6517 627.619C88.8639 630.559 93.1303 630.355 96.3323 627.011C98.8821 624.354 100.761 619.712 101.922 613.22C103.646 603.578 103.249 592.608 103.119 589.934C103.57 590.258 103.984 590.521 104.359 590.733C106.111 591.72 107.036 591.607 107.106 591.597L106.44 589.831C106.425 589.834 105.593 589.926 103.993 589.024ZM25.3546 497.745C25.1976 498.102 25.0452 498.467 24.8981 498.84C24.8575 498.942 24.818 499.044 24.7787 499.146C24.6524 499.476 24.531 499.811 24.4125 500.152C24.3631 500.295 24.3132 500.438 24.2649 500.583C24.1648 500.885 24.0681 501.194 23.974 501.505C23.9173 501.69 23.8604 501.873 23.806 502.06C23.7297 502.327 23.6577 502.6 23.5855 502.872C23.5223 503.11 23.4569 503.345 23.3971 503.588C23.3549 503.76 23.3164 503.938 23.2759 504.112C22.7436 506.376 22.3506 508.832 22.0979 511.466C22.098 511.467 22.0981 511.467 22.0981 511.467C21.1784 521.069 22.1224 533.017 25.0277 546.56C34.4916 590.671 61.8658 637.651 86.0496 651.285C87.0276 651.837 87.9898 652.323 88.9381 652.755C88.9896 652.779 89.0414 652.804 89.0928 652.827C89.5348 653.026 89.9734 653.215 90.4078 653.388C90.5703 653.453 90.73 653.508 90.891 653.57C91.1194 653.656 91.3466 653.742 91.5727 653.82C91.833 653.912 92.0911 653.997 92.3486 654.079C92.4393 654.107 92.5297 654.135 92.6202 654.162C94.2367 654.656 95.7981 654.97 97.2948 655.078L90.0189 658.156C85.4272 660.104 79.7884 659.222 73.2659 655.545C49.456 642.12 22.459 595.654 13.0857 551.964C6.72977 522.34 10.037 500.062 21.5115 495.206L28.7605 492.138C27.4744 493.658 26.3649 495.483 25.4279 497.578C25.4034 497.633 25.3791 497.689 25.3546 497.745Z" fill="#F5DF4D"/>
<path fill-rule="evenodd" clip-rule="evenodd" d="M552.962 497.207L552.961 497.207C552.944 497.27 552.921 497.332 552.904 497.395C552.827 497.671 552.743 497.945 552.647 498.217C552.6 498.351 552.546 498.482 552.494 498.614C552.419 498.81 552.341 499.004 552.255 499.197C552.166 499.398 552.073 499.599 551.973 499.797C551.947 499.848 551.922 499.9 551.896 499.951C548.183 507.09 537.8 511.816 523.345 512.998C523.303 513.001 523.261 513.005 523.219 513.008C522.72 513.048 522.215 513.083 521.706 513.114C521.609 513.12 521.514 513.127 521.416 513.133C520.955 513.16 520.488 512.818 520.019 513.202C519.884 513.207 519.75 513.215 519.614 513.22C519.162 513.237 518.703 513.249 518.244 513.26C518.097 513.263 517.953 513.269 517.806 513.272C517.205 513.283 516.599 513.289 515.987 513.289C483.445 513.289 444.799 497.869 429.84 478.914C429.51 478.497 429.198 478.08 428.895 477.665C428.765 477.486 428.644 477.307 428.518 477.128C428.359 476.9 428.2 476.674 428.049 476.448C427.892 476.212 427.743 475.977 427.595 475.742C427.495 475.583 427.394 475.423 427.298 475.265C427.13 474.988 426.969 474.711 426.814 474.436C426.756 474.334 426.699 474.231 426.643 474.129C426.469 473.81 426.3 473.492 426.142 473.175C426.125 473.14 426.109 473.105 426.091 473.07C424.81 470.461 424.104 467.923 423.991 465.508C423.989 465.467 423.987 465.425 423.985 465.384C423.974 465.081 423.972 464.779 423.979 464.48C423.981 464.404 423.985 464.328 423.989 464.253C423.999 463.98 424.015 463.708 424.042 463.439C424.053 463.329 424.07 463.221 424.084 463.112C424.114 462.872 424.143 462.632 424.186 462.395C424.223 462.192 424.271 461.991 424.318 461.79C424.348 461.654 424.372 461.517 424.408 461.383L424.411 461.368L424.41 461.368C424.608 460.619 424.872 459.886 425.202 459.17C429.216 450.476 442.742 445.287 461.384 445.287C493.926 445.287 532.572 460.707 547.532 479.662C552.498 485.955 554.347 491.968 552.962 497.207ZM456.57 461.441C456.56 461.442 456.55 461.444 456.541 461.446C454.372 461.818 459.242 467.776 467.416 474.752C475.555 481.697 483.902 487.033 486.115 486.712C486.125 486.71 486.135 486.709 486.145 486.707C488.312 486.335 483.443 480.377 475.267 473.401C467.129 466.456 458.781 461.119 456.57 461.441ZM499.131 469.936C490.992 462.991 482.645 457.654 480.433 457.976C480.424 457.977 480.413 457.979 480.404 457.981C478.235 458.353 483.106 464.311 491.281 471.287C499.42 478.232 507.766 483.568 509.979 483.247C509.989 483.246 509.998 483.244 510.008 483.243C512.177 482.87 507.305 476.912 499.131 469.936ZM533.639 487.415C532.815 481.754 529.517 476.379 528.678 475.084C529.216 475.045 529.7 474.99 530.132 474.927C532.149 474.634 533.046 474.158 533.113 474.121L531.979 473.529C531.964 473.537 531.155 473.961 529.314 474.228C527.682 474.465 525.241 474.579 521.826 474.172L522.103 474.862C524.177 475.109 525.914 475.179 527.35 475.147C528.276 476.596 531.362 481.742 532.143 487.152C532.682 490.869 532.042 493.981 530.246 496.404C528.015 499.415 523.973 501.364 518.234 502.197C512.494 503.03 505.725 502.651 498.112 501.07C491.986 499.798 485.3 497.749 478.235 494.98C467.963 490.953 459.852 486.544 457.596 485.281C458.69 484.947 459.795 484.464 460.78 483.766L459.593 483.208C457.988 484.344 456.028 484.869 454.397 485.106C452.557 485.373 451.134 485.273 451.106 485.271L451.489 485.973C451.61 485.982 453.199 486.097 455.218 485.804C455.638 485.743 456.077 485.665 456.525 485.564C458.531 486.694 466.952 491.321 477.7 495.537C484.943 498.378 491.82 500.485 498.136 501.798C506.077 503.45 513.145 503.844 519.144 502.974C525.143 502.103 529.364 500.069 531.687 496.927C533.539 494.428 534.194 491.227 533.639 487.415ZM515.987 514.474C533.26 514.474 545.946 510.207 551.487 502.81L550.113 508.031C547.503 517.95 533.336 524.113 513.14 524.113C480.598 524.113 441.952 508.693 426.993 489.738C422.064 483.493 420.187 477.426 421.564 472.193L422.956 466.9C423.476 470.963 425.494 475.285 428.948 479.662C444.097 498.857 483.143 514.474 515.987 514.474Z" fill="#F5DF4D"/>
<path fill-rule="evenodd" clip-rule="evenodd" d="M1195.79 386.688C1187.41 395.392 1177.85 399.15 1170.32 396.865C1169.66 396.665 1169.01 396.419 1168.39 396.126L1167.49 395.706C1174.92 396.649 1183.46 392.716 1191.11 384.771C1205.32 370.025 1211.99 345.929 1205.97 331.058C1204.79 328.125 1203.19 325.728 1201.24 323.897L1202.12 324.308C1205.78 326.02 1208.68 329.301 1210.49 333.797C1216.41 348.413 1209.81 372.14 1195.79 386.688ZM1190.56 384.236C1182.71 392.374 1173.97 396.218 1166.56 394.781C1161.23 393.746 1157.16 390.084 1154.78 384.186C1148.86 369.57 1155.46 345.843 1169.48 331.295C1177.32 323.157 1186.06 319.314 1193.47 320.751C1194.73 320.996 1195.92 321.393 1197.03 321.927L1197.25 322.031C1200.74 323.777 1203.47 326.936 1205.26 331.345C1211.17 345.961 1204.57 369.688 1190.56 384.236ZM1167.05 348.287C1167.04 348.292 1167.04 348.297 1167.03 348.303C1165.91 349.523 1166.88 355.157 1169.2 360.882C1171.5 366.583 1174.28 370.227 1175.41 369.053C1175.41 369.048 1175.42 369.043 1175.42 369.037C1176.54 367.817 1175.57 362.184 1173.26 356.458C1170.95 350.758 1168.18 347.114 1167.05 348.287ZM1185.45 343.804C1183.14 338.103 1180.37 334.458 1179.24 335.632C1179.24 335.637 1179.23 335.643 1179.23 335.648C1178.1 336.869 1179.07 342.501 1181.39 348.227C1183.7 353.927 1186.47 357.572 1187.6 356.399C1187.6 356.394 1187.61 356.388 1187.62 356.383C1188.74 355.162 1187.77 349.53 1185.45 343.804ZM1199.13 339.063C1200.16 337.994 1200.7 337.092 1200.74 337.023L1200.33 336.691C1200.32 336.706 1199.84 337.513 1198.9 338.489C1198.06 339.354 1196.87 340.353 1195.33 341.051L1195.31 341.804C1196.24 341.38 1197.05 340.856 1197.75 340.312C1197.86 341.772 1198.16 347.03 1197.3 353.425C1196.71 357.817 1195.7 361.877 1194.29 365.495C1192.53 369.988 1190.16 373.811 1187.22 376.855C1184.29 379.898 1181.14 381.809 1177.87 382.535C1175.23 383.119 1172.5 382.944 1169.76 382.012C1165.76 380.658 1162.89 378.074 1162.1 377.309C1162.7 376.513 1163.34 375.529 1163.97 374.324L1163.53 374.052C1162.5 376.017 1161.45 377.353 1160.61 378.218C1159.67 379.193 1159.02 379.571 1159 379.578L1159.03 380.309C1159.08 380.278 1159.82 379.861 1160.85 378.79C1161.06 378.568 1161.29 378.316 1161.53 378.034C1162.23 378.723 1165.2 381.467 1169.37 382.887C1172.19 383.844 1174.99 384.025 1177.71 383.424C1181.13 382.67 1184.42 380.673 1187.48 377.492C1190.55 374.311 1193.03 370.321 1194.86 365.632C1196.31 361.902 1197.35 357.726 1197.96 353.223C1198.85 346.534 1198.5 341.069 1198.4 339.767C1198.66 339.529 1198.91 339.293 1199.13 339.063Z" fill="#F5DF4D"/>
<path fill-rule="evenodd" clip-rule="evenodd" d="M340.969 137.651C300.639 180.387 207.716 176.664 133.825 129.354C89.1256 100.736 59.6953 61.3071 55.0971 23.8819C52.388 1.82595 58.5918 -17.9241 73.036 -33.2318C91.8564 -53.1757 122.127 -63 156.578 -63C195.947 -63 240.772 -50.1658 280.181 -24.9333C324.88 3.68335 354.311 43.1119 358.909 80.5362C361.618 102.592 355.415 122.343 340.969 137.651ZM222.947 -18.5891C222.92 -18.6063 222.894 -18.6236 222.867 -18.6408C216.902 -22.4616 199.374 -12.0801 183.602 4.63288C167.762 21.4201 159.69 38.2427 165.58 42.2031C165.606 42.2203 165.632 42.2384 165.659 42.2547C171.625 46.0746 189.152 35.694 204.925 18.9811C220.765 2.1938 228.836 -14.6279 222.947 -18.5891ZM287.278 22.5989C287.252 22.5817 287.225 22.5636 287.2 22.5473C281.239 18.7292 263.706 29.108 247.934 45.8209C232.093 62.6082 224.025 79.4326 229.912 83.3911C229.937 83.4084 229.964 83.4265 229.991 83.4428C235.956 87.2618 253.488 76.8848 269.26 60.1718C285.101 43.3846 293.169 26.5602 287.278 22.5989ZM310.783 114.678C306.385 111.861 300.921 107.57 295.906 101.38L293.263 102.097C296.338 105.896 299.561 109.025 302.644 111.576C297.77 113.704 280.146 120.851 256.642 124.008C240.48 126.18 224.747 126.068 209.873 123.677C191.389 120.705 174.175 114.178 158.702 104.272C143.229 94.3652 131.299 82.2314 123.246 68.2139C116.761 56.93 112.744 44.3975 111.315 30.9626C109.228 11.4002 113.299 -4.44662 114.595 -8.84005C118.332 -7.02886 122.769 -5.25029 127.944 -3.74716L128.136 -6.03402C119.617 -8.50934 113.217 -11.8137 108.819 -14.6297C103.857 -17.8063 101.441 -20.3632 101.398 -20.4112L98.9145 -19.5024C99.1157 -19.2841 101.797 -16.4273 107.234 -12.9463C108.399 -12.1997 109.691 -11.425 111.112 -10.6422C109.928 -6.72624 105.478 9.73665 107.647 30.1961C109.107 43.9717 113.231 56.8593 119.914 68.4948C128.307 83.1211 140.764 95.785 156.939 106.14C173.109 116.493 191.085 123.314 210.364 126.405C225.699 128.867 241.877 128.978 258.45 126.746C283.038 123.431 301.3 115.827 305.628 113.907C306.864 114.817 308.059 115.632 309.192 116.357C314.633 119.841 318.656 121.275 318.962 121.382L319.419 119.176C319.349 119.151 315.744 117.854 310.783 114.678ZM132.202 131.91C172.041 157.415 217.385 170.37 257.344 170.367C292.644 170.365 323.743 160.25 343.095 139.745C343.771 139.028 344.431 138.301 345.073 137.565L344.055 139.792C341.012 146.447 336.814 152.636 331.578 158.185C291.25 200.921 198.326 197.199 124.434 149.888C93.6676 130.19 69.4761 104.772 56.3176 78.3155C43.4308 52.4061 41.6024 26.6154 51.1685 5.69659L52.2349 3.36441C52.1371 4.06479 52.0736 4.77604 51.9957 5.48276C51.9468 5.93216 51.8897 6.37975 51.848 6.83186C51.7828 7.5413 51.7375 8.25708 51.6931 8.97285C51.6596 9.50289 51.627 10.032 51.6043 10.5648C51.5753 11.2416 51.5545 11.9211 51.5436 12.6043C51.5336 13.2258 51.5345 13.8492 51.5382 14.4744C51.5418 15.0823 51.5427 15.6894 51.5608 16.301C51.5889 17.2831 51.6405 18.2698 51.704 19.2592C51.7212 19.5247 51.7257 19.7856 51.7457 20.052C51.8435 21.3803 51.9794 22.7167 52.1398 24.0577C52.147 24.1202 52.1507 24.1818 52.1579 24.2443C52.186 24.4753 52.2268 24.7073 52.2576 24.9392C52.3772 25.8634 52.5058 26.7894 52.6553 27.7199C52.6798 27.8721 52.7088 28.0243 52.7342 28.1765C52.9135 29.2602 53.112 30.3456 53.3312 31.4356C53.333 31.4447 53.3358 31.4537 53.3376 31.4628C55.176 40.5532 58.4024 49.8538 63.0305 59.1598C76.4255 86.0903 100.991 111.926 132.202 131.91Z" fill="#F5DF4D"/>
<path fill-rule="evenodd" clip-rule="evenodd" d="M1105.43 188.215C1093.23 195.07 1080.05 198.401 1068.33 197.597C1056.8 196.804 1047.65 192.086 1042.55 184.311C1045.66 186.986 1049.43 189.07 1053.8 190.475C1055.39 190.986 1057.03 191.4 1058.72 191.719C1071.69 194.166 1087.43 191.012 1101.88 182.893C1127.54 168.479 1142.16 142.563 1136.29 123.267C1136.92 124.24 1137.49 125.267 1137.98 126.325C1146.87 145.373 1132.27 173.137 1105.43 188.215ZM1101.35 181.945C1085.27 190.976 1067.62 193.778 1054.13 189.44C1045.95 186.807 1039.9 181.737 1036.65 174.778C1027.76 155.729 1042.37 127.966 1069.21 112.888C1085.29 103.856 1102.94 101.053 1116.43 105.393C1124.61 108.026 1130.66 113.096 1133.91 120.055C1142.8 139.103 1128.19 166.866 1101.35 181.945ZM1073.28 144.474C1069.8 137.012 1065.23 131.984 1063.07 133.203C1063.06 133.208 1063.05 133.214 1063.04 133.219C1060.88 134.498 1061.97 141.614 1065.46 149.109C1068.95 156.571 1073.51 161.598 1075.68 160.379C1075.69 160.374 1075.7 160.368 1075.71 160.363C1077.86 159.084 1076.78 151.969 1073.28 144.474ZM1096.68 131.33C1093.2 123.868 1088.64 118.839 1086.47 120.058C1086.46 120.064 1086.45 120.07 1086.44 120.075C1084.28 121.354 1085.37 128.469 1088.86 135.964C1092.35 143.426 1096.91 148.454 1099.08 147.235C1099.09 147.23 1099.1 147.224 1099.11 147.218C1101.26 145.939 1100.18 138.825 1096.68 131.33ZM1124.26 125.528C1124.24 125.545 1123.28 126.441 1121.47 127.455C1119.87 128.354 1117.61 129.345 1114.76 129.898L1114.63 130.819C1116.36 130.484 1117.89 130.001 1119.2 129.468C1119.23 131.285 1119.16 137.808 1116.87 145.497C1115.3 150.779 1113 155.569 1110.04 159.737C1106.37 164.914 1101.65 169.143 1096.02 172.304C1090.39 175.465 1084.51 177.192 1078.53 177.436C1073.72 177.633 1068.84 176.878 1064.01 175.19C1056.99 172.738 1052.13 168.993 1050.8 167.898C1051.97 167.038 1053.23 165.955 1054.5 164.597L1053.74 164.176C1051.67 166.389 1049.61 167.821 1048.01 168.72C1046.21 169.733 1044.98 170.068 1044.96 170.074L1044.92 170.976C1045.02 170.949 1046.39 170.582 1048.37 169.47C1048.78 169.239 1049.22 168.975 1049.68 168.675C1050.86 169.66 1055.88 173.619 1063.22 176.19C1068.17 177.922 1073.19 178.7 1078.15 178.498C1084.39 178.247 1090.53 176.442 1096.41 173.138C1102.29 169.834 1107.22 165.42 1111.05 160.018C1114.1 155.721 1116.46 150.794 1118.07 145.378C1120.46 137.335 1120.47 130.548 1120.43 128.927C1120.93 128.687 1121.4 128.444 1121.82 128.206C1123.8 127.095 1124.87 126.093 1124.95 126.016L1124.26 125.528Z" fill="#F5DF4D"/>
</svg>
