<svg width="1346" height="640" viewBox="0 0 1346 640" fill="none" xmlns="http://www.w3.org/2000/svg">
<path fill-rule="evenodd" clip-rule="evenodd" d="M737.05 235.033C727.327 242.085 717.653 245.999 711.066 245.998C708.02 245.998 705.633 245.161 704.208 243.409L702.242 240.991C702.654 241.195 703.098 241.371 703.574 241.516C703.646 241.538 703.725 241.553 703.799 241.574C703.816 241.578 703.833 241.582 703.85 241.587C704.194 241.681 704.552 241.758 704.921 241.821C704.955 241.826 704.988 241.833 705.023 241.838C705.608 241.932 706.223 241.988 706.867 242.006C706.906 242.007 706.945 242.008 706.984 242.009C707.101 242.012 707.214 242.02 707.333 242.02C709.083 242.02 711.027 241.753 713.113 241.242C713.129 241.238 713.144 241.235 713.16 241.231C713.188 241.224 713.217 241.215 713.245 241.208C713.56 241.13 713.878 241.045 714.198 240.956C714.266 240.937 714.333 240.919 714.401 240.9C714.742 240.802 715.087 240.699 715.435 240.589C715.524 240.561 715.614 240.531 715.704 240.502C715.984 240.411 716.267 240.317 716.551 240.218C716.645 240.186 716.739 240.154 716.833 240.121C717.179 239.999 717.528 239.87 717.879 239.737C717.974 239.701 718.068 239.664 718.162 239.627C718.461 239.511 718.762 239.391 719.064 239.267C719.146 239.234 719.228 239.201 719.31 239.167C719.684 239.012 720.06 238.85 720.438 238.683C720.5 238.656 720.561 238.628 720.623 238.6C720.982 238.44 721.343 238.274 721.705 238.104C721.746 238.085 721.786 238.066 721.826 238.047C722.242 237.85 722.66 237.646 723.08 237.436C723.084 237.434 723.088 237.432 723.091 237.43C726.533 235.704 730.11 233.524 733.673 230.941C744.397 223.162 752.697 213.411 756.138 205.372C756.144 205.357 756.151 205.341 756.158 205.326C756.225 205.167 756.29 205.01 756.354 204.853C756.365 204.825 756.377 204.798 756.388 204.771C756.447 204.623 756.504 204.477 756.559 204.332C756.573 204.295 756.588 204.257 756.602 204.22C756.654 204.084 756.703 203.948 756.751 203.813C756.768 203.767 756.785 203.721 756.801 203.675C756.846 203.548 756.888 203.421 756.93 203.294C756.948 203.242 756.966 203.189 756.983 203.137C757.022 203.017 757.059 202.897 757.096 202.778C757.114 202.72 757.131 202.663 757.148 202.606C757.182 202.492 757.215 202.379 757.246 202.266C757.264 202.204 757.281 202.142 757.298 202.08C757.327 201.973 757.354 201.866 757.381 201.76C757.398 201.694 757.414 201.628 757.43 201.562C757.455 201.46 757.478 201.359 757.5 201.258C757.516 201.189 757.531 201.12 757.545 201.052C757.566 200.955 757.585 200.859 757.603 200.764C757.617 200.692 757.631 200.62 757.644 200.548C757.66 200.457 757.675 200.366 757.69 200.275C757.702 200.201 757.713 200.127 757.724 200.052C757.737 199.966 757.749 199.88 757.76 199.794C757.77 199.717 757.779 199.641 757.788 199.564C757.797 199.483 757.805 199.402 757.813 199.321C757.82 199.242 757.827 199.163 757.833 199.085C757.839 199.008 757.844 198.931 757.848 198.856C757.853 198.774 757.857 198.694 757.86 198.613C757.863 198.541 757.865 198.47 757.867 198.398C757.868 198.315 757.869 198.233 757.869 198.151C757.868 198.083 757.868 198.016 757.867 197.949C757.866 197.865 757.862 197.78 757.859 197.696C757.856 197.634 757.854 197.572 757.85 197.51C757.845 197.423 757.837 197.337 757.83 197.251C757.825 197.194 757.82 197.137 757.814 197.08C757.805 196.991 757.793 196.903 757.782 196.814C757.775 196.763 757.768 196.711 757.76 196.659C757.746 196.568 757.73 196.478 757.713 196.388C757.705 196.341 757.697 196.294 757.688 196.248C757.669 196.154 757.647 196.061 757.625 195.968C757.615 195.928 757.607 195.888 757.597 195.848C757.591 195.826 757.587 195.804 757.581 195.782L759.542 198.193C759.951 198.696 760.279 199.277 760.518 199.921C763.428 207.786 752.9 223.537 737.05 235.033ZM733.3 230.423C723.578 237.475 713.903 241.388 707.316 241.388C707.164 241.388 707.015 241.384 706.867 241.38C706.783 241.377 706.699 241.374 706.617 241.37C706.513 241.366 706.411 241.361 706.309 241.354C705.391 241.29 704.537 241.144 703.758 240.908C703.496 240.828 703.244 240.738 703.003 240.638C702.996 240.636 702.989 240.633 702.982 240.63C702.755 240.536 702.54 240.433 702.333 240.322C702.299 240.304 702.266 240.286 702.234 240.267C702.042 240.161 701.859 240.049 701.684 239.929C701.647 239.903 701.612 239.874 701.575 239.848C701.437 239.748 701.305 239.642 701.177 239.533C701.134 239.495 701.088 239.459 701.046 239.42C700.909 239.296 700.782 239.163 700.659 239.027C700.612 238.975 700.565 238.923 700.52 238.869C700.083 238.348 699.733 237.751 699.482 237.073C696.573 229.208 707.1 213.457 722.95 201.961C734.436 193.631 746.033 189.516 752.492 191.48C754.094 191.967 755.303 192.814 756.103 194.005C756.105 194.008 756.107 194.011 756.109 194.014C756.227 194.191 756.335 194.379 756.435 194.572C756.456 194.611 756.477 194.651 756.496 194.691C756.596 194.892 756.688 195.098 756.768 195.314C757.086 196.174 757.244 197.128 757.251 198.161C757.31 206.573 747.416 220.185 733.3 230.423ZM721.938 214.634C721.264 213.023 718.961 212.997 716.787 214.574C716.781 214.578 716.774 214.583 716.768 214.588C714.588 216.178 713.369 218.779 714.047 220.396C714.719 222.008 717.022 222.034 719.197 220.456C719.204 220.452 719.211 220.447 719.217 220.442C721.396 218.851 722.615 216.251 721.938 214.634ZM738.088 202.958C737.536 201.251 735.315 201.145 733.128 202.722C733.121 202.726 733.115 202.731 733.108 202.736C730.935 204.312 729.622 206.961 730.172 208.662C730.727 210.367 732.948 210.473 735.133 208.898C735.14 208.894 735.146 208.889 735.152 208.884C737.326 207.308 738.639 204.659 738.088 202.958ZM740.195 218.564C741.305 217.758 742.272 216.495 742.565 215.672C743.08 214.231 741.728 213.351 738.991 214.067C740.466 212.109 741.413 210.384 742.018 209.042C742.455 208.076 742.714 207.305 742.863 206.785L744.662 206.845C744.788 206.851 744.967 206.772 745.136 206.65C745.231 206.581 745.322 206.499 745.398 206.409C745.606 206.161 745.617 205.954 745.42 205.948L742.909 205.862C742.787 205.858 742.606 205.934 742.434 206.058C742.411 206.075 742.388 206.093 742.365 206.111C742.172 206.269 742.035 206.458 742.012 206.593L742.013 206.596C741.997 206.688 741.641 208.646 739.948 211.528C739.106 212.967 737.93 214.636 736.304 216.426C734.676 218.215 732.599 220.127 729.915 222.075C727.187 224.053 724.841 225.337 722.838 226.164C719.836 227.402 717.595 227.611 716.107 227.503C715.363 227.45 714.809 227.317 714.441 227.199C714.259 227.14 714.121 227.084 714.031 227.046C713.988 227.023 713.953 227.008 713.931 226.997L713.909 226.985L713.905 226.981L713.902 226.981C713.81 226.929 713.62 226.977 713.419 227.105C713.395 227.121 713.371 227.137 713.347 227.154C713.174 227.28 713.026 227.442 712.96 227.584L711.56 230.507C711.451 230.734 711.576 230.843 711.841 230.747C711.937 230.712 712.038 230.655 712.134 230.586C712.302 230.464 712.452 230.304 712.523 230.157L713.524 228.065C714.162 228.277 715.367 228.54 717.168 228.375C718.577 228.246 720.354 227.855 722.512 226.965C724.671 226.075 727.207 224.683 730.102 222.583C732.136 221.108 733.865 219.633 735.324 218.209C735.729 218.311 736.432 218.496 736.731 218.624C737.199 218.822 737.099 219.137 737.522 219.302C737.569 219.318 738.462 219.639 739.809 218.821C739.939 218.742 740.068 218.656 740.195 218.564Z" fill="#F5DF4D"/>
<path fill-rule="evenodd" clip-rule="evenodd" d="M1090.38 660.442C1049.32 694.569 998.515 712.51 954.485 708.437C925.603 705.765 901.779 694.038 885.587 674.526C843.339 623.561 866.419 534.351 937.05 475.638C976.805 442.591 1025.7 424.72 1068.74 427.322C1068.81 427.326 1068.88 427.332 1068.95 427.337C1070.29 427.42 1071.62 427.52 1072.94 427.642C1094.29 429.618 1112.87 436.547 1127.66 447.907C1127.75 447.975 1127.84 448.038 1127.93 448.106C1128.95 448.898 1129.94 449.723 1130.93 450.558C1131.15 450.745 1131.38 450.921 1131.6 451.11C1132.46 451.854 1133.29 452.63 1134.12 453.407C1134.45 453.709 1134.78 453.998 1135.1 454.305C1135.82 454.999 1136.51 455.722 1137.21 456.44C1137.62 456.859 1138.03 457.265 1138.43 457.691C1139.03 458.334 1139.61 459.004 1140.19 459.667C1140.72 460.272 1141.26 460.863 1141.78 461.484L1141.84 461.562C1184.08 512.529 1161 601.733 1090.38 660.442ZM979.868 557.201C968.69 540.383 947.766 535.403 933.127 546.075C932.61 546.452 932.109 546.843 931.621 547.248C918.314 558.312 916.084 579.623 926.868 595.841C938.046 612.659 958.973 617.642 973.608 606.973C974.124 606.596 974.626 606.205 975.113 605.8C988.422 594.737 990.65 573.425 979.868 557.201ZM1063.53 491.95C1062.27 491.428 1060.88 491.037 1059.39 490.845C1056.43 490.434 1053.11 490.663 1049.74 491.467C1048.89 491.678 1048.06 491.946 1047.21 492.195C1046.79 492.33 1046.35 492.449 1045.94 492.615L1044.69 493.11C1043.86 493.461 1042.1 493.772 1042.18 494.18C1041.37 494.585 1040.55 495.009 1039.74 495.436C1039.34 495.656 1038.92 495.857 1038.53 496.095L1037.36 496.819C1036.58 497.308 1035.81 497.816 1035.04 498.311C1033.54 499.368 1032.1 500.502 1030.66 501.623C1029.3 502.841 1027.92 504.038 1026.61 505.327C1025.98 505.996 1025.34 506.661 1024.72 507.338L1023.79 508.358C1023.48 508.696 1023.21 509.074 1022.92 509.427C1022.35 510.149 1021.79 510.874 1021.24 511.602C1020.7 512.328 1020.23 513.114 1019.74 513.867L1019.02 515.006C1018.78 515.386 1018.59 515.787 1018.38 516.179C1017.98 516.968 1017.56 517.744 1017.19 518.532C1015.79 521.699 1014.95 524.918 1014.81 527.913C1014.72 529.409 1014.85 530.848 1015.13 532.191C1015.45 533.521 1015.9 534.791 1016.71 535.803C1017.21 534.302 1017.79 532.911 1018.39 531.558C1018.74 530.873 1018.98 530.227 1019.35 529.57C1019.53 529.244 1019.68 528.925 1019.84 528.606C1020 528.291 1020.2 527.975 1020.37 527.662C1021.78 525.166 1023.35 522.864 1025.02 520.7C1028.48 516.41 1032.34 512.6 1036.74 508.943C1041.14 505.298 1045.58 502.2 1050.43 499.592C1052.87 498.346 1055.41 497.225 1058.12 496.298C1058.46 496.185 1058.81 496.04 1059.14 495.95C1059.48 495.847 1059.83 495.756 1060.18 495.643C1060.89 495.396 1061.57 495.276 1062.31 495.053C1063.74 494.717 1065.22 494.396 1066.79 494.171C1065.95 493.188 1064.79 492.508 1063.53 491.95ZM1103.43 527.557C1102.03 523.741 1100.3 520.123 1098.26 516.751C1096.22 513.379 1093.86 510.224 1091.07 507.493C1092.04 509.2 1092.91 510.956 1093.69 512.762C1094.49 514.551 1095.21 516.391 1095.88 518.25C1097.19 521.976 1098.28 525.804 1099.07 529.751C1100.65 537.63 1101.13 545.926 1100.17 554.442C1100.13 554.97 1100.05 555.506 1099.97 556.041L1099.73 557.646C1099.65 558.181 1099.59 558.712 1099.49 559.248L1099.16 560.863L1098.84 562.471L1098.69 563.274L1098.48 564.081L1097.67 567.311L1096.67 570.54C1096.36 571.614 1095.95 572.692 1095.56 573.764L1094.97 575.374L1094.68 576.18L1094.34 576.98L1092.97 580.19C1090.97 584.437 1088.86 588.682 1086.21 592.793C1084.98 594.875 1083.54 596.892 1082.17 598.93C1081.51 599.957 1080.71 600.938 1079.98 601.935L1077.73 604.924L1075.34 607.836C1074.54 608.798 1073.78 609.797 1072.91 610.716C1071.22 612.585 1069.58 614.5 1067.77 616.262C1064.3 619.943 1060.47 623.273 1056.58 626.514C1052.64 629.713 1048.49 632.605 1044.24 635.331L1041 637.269L1040.19 637.754L1039.36 638.205L1037.7 639.102L1036.05 640.013C1035.5 640.304 1034.93 640.573 1034.38 640.854L1032.7 641.689C1032.14 641.971 1031.58 642.252 1031.01 642.497C1021.97 646.722 1012.58 649.764 1003.2 651.826C998.496 652.861 993.807 653.619 989.135 654.167C986.8 654.433 984.467 654.651 982.152 654.787C979.832 654.943 977.526 655.014 975.238 654.994C979.411 655.966 983.874 656.434 988.453 656.579C993.028 656.728 997.747 656.536 1002.56 656.02C1012.17 654.964 1022.19 652.551 1032.13 648.57C1037.08 646.561 1042.02 644.191 1046.84 641.452C1049.21 640.015 1051.64 638.642 1053.93 637.027L1055.68 635.853L1056.55 635.262L1057.4 634.64L1060.79 632.123C1061.92 631.286 1062.98 630.36 1064.08 629.474C1064.51 629.122 1064.93 628.772 1065.36 628.419C1066.02 627.872 1066.67 627.316 1067.29 626.732L1070.43 623.902C1071.46 622.946 1072.43 621.94 1073.43 620.958C1075.46 619.008 1077.28 616.914 1079.16 614.858C1080.12 613.843 1080.96 612.759 1081.85 611.701L1084.48 608.516L1086.93 605.227C1087.74 604.123 1088.6 603.048 1089.33 601.91C1090.83 599.655 1092.4 597.43 1093.72 595.107C1094.4 593.951 1095.12 592.811 1095.75 591.645L1097.6 588.133C1098.24 586.966 1098.77 585.778 1099.32 584.592L1100.13 582.82C1100.39 582.224 1100.68 581.637 1100.9 581.034C1102.86 576.276 1104.38 571.486 1105.5 566.743C1106.55 562.004 1107.14 557.335 1107.34 552.785C1107.66 543.7 1106.21 535.202 1103.43 527.557ZM1125.02 442.44C1124.44 442.049 1123.86 441.664 1123.28 441.284C1122.65 440.879 1122.03 440.474 1121.39 440.082C1120.8 439.718 1120.19 439.369 1119.59 439.017C1118.46 438.355 1117.31 437.714 1116.15 437.095C1115.68 436.844 1115.2 436.591 1114.72 436.347C1113.94 435.946 1113.15 435.554 1112.35 435.172C1111.97 434.991 1111.59 434.818 1111.2 434.641C1109.58 433.889 1107.93 433.176 1106.24 432.503C1105.99 432.401 1105.73 432.294 1105.48 432.193C1104.53 431.822 1103.57 431.467 1102.6 431.121C1102.32 431.021 1102.04 430.925 1101.76 430.827C1098.63 429.737 1095.42 428.777 1092.11 427.95C1091.95 427.91 1091.79 427.87 1091.63 427.83C1085.73 426.38 1079.59 425.325 1073.18 424.732C1028.41 420.588 976.808 438.776 935.174 473.385C871.403 526.395 845.923 604.058 871.241 657.345C830.229 606.204 853.481 517.851 923.604 459.561C964.661 425.434 1015.45 407.49 1059.49 411.566C1087.51 414.158 1110.77 425.272 1126.92 443.753C1126.86 443.707 1126.8 443.665 1126.73 443.62C1126.17 443.218 1125.59 442.83 1125.02 442.44Z" fill="#F5DF4D"/>
<path fill-rule="evenodd" clip-rule="evenodd" d="M116.434 687.953C115.435 688.693 114.367 689.28 113.238 689.717C113.204 689.73 113.171 689.743 113.137 689.755C109.358 691.183 104.886 690.925 99.9066 688.992C99.799 688.95 99.6897 688.906 99.5817 688.863C99.2589 688.734 98.9338 688.594 98.6071 688.451C98.3913 688.355 98.1757 688.261 97.9578 688.159C97.7643 688.07 97.5685 687.973 97.3734 687.879C96.6298 687.517 95.8777 687.128 95.1121 686.696C68.8332 671.879 39.0362 620.595 28.6904 572.375C22.9928 545.817 24.3309 524.608 31.8219 514.709C31.8234 514.707 31.825 514.706 31.8259 514.704C32.1002 514.342 32.3833 513.997 32.674 513.666C32.7156 513.618 32.7583 513.573 32.8007 513.526C33.0518 513.245 33.3093 512.976 33.5726 512.719C33.6463 512.647 33.7205 512.577 33.7953 512.508C34.0309 512.286 34.2718 512.073 34.5172 511.869C34.6176 511.785 34.7197 511.703 34.8219 511.622C35.026 511.462 35.2349 511.311 35.4451 511.163C35.6421 511.024 35.8411 510.891 36.0439 510.765C36.2135 510.657 36.3843 510.552 36.5582 510.453C36.812 510.309 37.07 510.175 37.332 510.048C37.4618 509.984 37.5899 509.919 37.7219 509.86C38.5397 509.495 39.3903 509.208 40.2754 509.009C44.8842 507.973 50.3803 509.18 56.4738 512.616C82.7525 527.433 112.549 578.716 122.894 626.937C129.314 656.86 126.839 680.239 116.434 687.953ZM55.1065 539.133C55.0975 539.127 55.0881 539.122 55.0788 539.117C52.9725 538.046 54.5376 552.435 58.5747 571.252C62.5943 589.986 67.5488 606.048 69.6703 607.244C69.6799 607.25 69.6894 607.255 69.6986 607.26C71.8034 608.33 70.2383 593.941 66.2014 575.124C62.1822 556.39 57.227 540.327 55.1065 539.133ZM77.9883 552.033C77.9789 552.028 77.9695 552.024 77.9601 552.019C75.8539 550.948 77.4203 565.337 81.4574 584.154C85.4772 602.888 90.4307 618.949 92.5523 620.145C92.5613 620.151 92.5712 620.156 92.58 620.161C94.6869 621.232 93.1203 606.842 89.0827 588.026C85.063 569.292 80.1098 553.229 77.9883 552.033ZM113.984 619.642C112.42 618.76 110.191 617.016 107.337 613.577L107.263 615.016C108.996 617.105 110.511 618.612 111.806 619.699C111.958 622.993 112.311 634.526 110.488 644.692C109.237 651.677 107.217 656.656 104.488 659.499C101.098 663.03 96.5874 663.248 91.0845 660.145C85.581 657.043 79.7243 650.98 73.6757 642.127C68.8081 635.001 63.803 626.061 58.7973 615.548C51.5178 600.262 46.3417 586.023 44.9199 581.998C46.0499 582.282 47.2599 582.309 48.4622 581.862L47.6652 579.933C45.7046 580.658 43.7137 580.023 42.1496 579.141C40.3855 578.146 39.1632 576.836 39.1397 576.811L39.1538 578.354C39.2569 578.466 40.6204 579.936 42.5558 581.027C42.9588 581.255 43.3872 581.465 43.8334 581.644C45.0946 585.235 50.445 600.105 58.0607 616.105C63.1932 626.887 68.3405 636.082 73.3586 643.43C79.6662 652.669 85.7821 658.998 91.5336 662.24C97.2863 665.484 101.995 665.259 105.529 661.568C108.343 658.636 110.417 653.512 111.698 646.347C113.601 635.705 113.164 623.598 113.019 620.646C113.517 621.004 113.974 621.294 114.388 621.528C116.322 622.618 117.343 622.493 117.42 622.481L116.685 620.533C116.669 620.536 115.75 620.638 113.984 619.642ZM27.1916 518.898C27.0182 519.292 26.85 519.695 26.6877 520.107C26.6428 520.219 26.5993 520.331 26.5559 520.444C26.4165 520.808 26.2825 521.179 26.1517 521.555C26.0972 521.713 26.0421 521.87 25.9888 522.03C25.8783 522.363 25.7716 522.705 25.6678 523.048C25.6052 523.252 25.5423 523.454 25.4824 523.661C25.3982 523.955 25.3186 524.256 25.2389 524.557C25.1692 524.819 25.097 525.079 25.031 525.347C24.9845 525.537 24.9419 525.733 24.8973 525.926C24.3098 528.424 23.876 531.135 23.5971 534.042C23.5972 534.042 23.5974 534.043 23.5974 534.043C22.5823 544.64 23.6241 557.828 26.8307 572.774C37.276 621.46 67.4887 673.311 94.1802 688.359C95.2596 688.968 96.3216 689.505 97.3682 689.982C97.4251 690.008 97.4822 690.035 97.539 690.061C98.0268 690.28 98.5109 690.489 98.9903 690.68C99.1696 690.752 99.3459 690.813 99.5237 690.881C99.7758 690.976 100.026 691.071 100.276 691.157C100.563 691.259 100.848 691.352 101.132 691.443C101.233 691.474 101.332 691.504 101.432 691.535C103.216 692.08 104.94 692.426 106.592 692.545L98.5611 695.943C93.4933 698.092 87.2697 697.119 80.0709 693.061C53.7921 678.243 23.9956 626.959 13.6504 578.739C6.6354 546.044 10.2855 521.455 22.9499 516.096L30.9505 512.71C29.5311 514.387 28.3065 516.402 27.2724 518.713C27.2453 518.774 27.2185 518.836 27.1916 518.898Z" fill="#F5DF4D"/>
<path fill-rule="evenodd" clip-rule="evenodd" d="M609.508 518.305L609.506 518.304C609.488 518.374 609.463 518.442 609.443 518.511C609.358 518.816 609.266 519.119 609.16 519.419C609.108 519.566 609.048 519.712 608.992 519.858C608.908 520.073 608.822 520.288 608.727 520.501C608.629 520.723 608.527 520.944 608.416 521.162C608.388 521.219 608.36 521.276 608.331 521.333C604.233 529.212 592.773 534.428 576.82 535.732C576.773 535.736 576.727 535.74 576.68 535.744C576.13 535.788 575.572 535.826 575.011 535.861C574.904 535.868 574.798 535.875 574.691 535.881C574.182 535.911 573.667 535.533 573.149 535.957C573 535.964 572.852 535.972 572.702 535.977C572.203 535.997 571.697 536.01 571.189 536.022C571.027 536.025 570.869 536.032 570.706 536.035C570.043 536.047 569.374 536.054 568.699 536.054C532.782 536.054 490.129 519.034 473.619 498.115C473.255 497.654 472.91 497.194 472.576 496.736C472.433 496.538 472.298 496.34 472.16 496.143C471.985 495.892 471.809 495.642 471.642 495.392C471.469 495.132 471.304 494.873 471.141 494.614C471.03 494.438 470.92 494.262 470.813 494.087C470.628 493.781 470.45 493.476 470.279 493.172C470.215 493.059 470.152 492.946 470.09 492.833C469.898 492.481 469.711 492.13 469.538 491.78C469.519 491.742 469.5 491.703 469.481 491.664C468.067 488.785 467.288 485.984 467.163 483.319C467.161 483.273 467.159 483.227 467.157 483.182C467.144 482.847 467.142 482.514 467.15 482.183C467.152 482.1 467.157 482.016 467.161 481.933C467.172 481.632 467.19 481.332 467.219 481.034C467.232 480.913 467.251 480.794 467.266 480.674C467.299 480.409 467.331 480.144 467.378 479.882C467.419 479.658 467.473 479.437 467.524 479.215C467.558 479.065 467.584 478.914 467.623 478.765L467.627 478.749L467.626 478.749C467.844 477.922 468.135 477.113 468.5 476.323C472.93 466.728 487.858 461 508.433 461C544.35 461 587.004 478.02 603.514 498.94C608.996 505.886 611.036 512.522 609.508 518.305ZM503.12 478.829C503.11 478.831 503.098 478.833 503.088 478.835C500.694 479.246 506.069 485.822 515.091 493.521C524.075 501.186 533.287 507.076 535.73 506.721C535.74 506.719 535.751 506.717 535.762 506.716C538.154 506.305 532.779 499.729 523.757 492.03C514.774 484.364 505.56 478.475 503.12 478.829ZM550.094 488.205C541.112 480.54 531.9 474.65 529.458 475.005C529.448 475.007 529.436 475.008 529.426 475.01C527.032 475.421 532.409 481.997 541.431 489.696C550.414 497.362 559.625 503.251 562.067 502.897C562.078 502.895 562.089 502.894 562.1 502.892C564.493 502.481 559.117 495.905 550.094 488.205ZM588.181 507.496C587.272 501.248 583.631 495.316 582.706 493.887C583.3 493.844 583.834 493.783 584.311 493.714C586.537 493.391 587.527 492.865 587.601 492.825L586.349 492.171C586.333 492.18 585.439 492.647 583.407 492.942C581.607 493.204 578.912 493.33 575.144 492.88L575.449 493.642C577.738 493.915 579.655 493.992 581.24 493.957C582.262 495.556 585.667 501.235 586.53 507.207C587.125 511.309 586.418 514.744 584.436 517.418C581.974 520.741 577.512 522.892 571.178 523.812C564.844 524.731 557.372 524.313 548.97 522.568C542.208 521.164 534.829 518.903 527.032 515.846C515.695 511.402 506.743 506.536 504.253 505.141C505.461 504.773 506.68 504.239 507.767 503.469L506.457 502.853C504.685 504.107 502.522 504.686 500.722 504.948C498.691 505.243 497.12 505.133 497.09 505.131L497.512 505.905C497.646 505.916 499.4 506.043 501.628 505.719C502.092 505.652 502.576 505.565 503.071 505.453C505.284 506.701 514.579 511.808 526.442 516.461C534.436 519.596 542.025 521.923 548.996 523.372C557.761 525.194 565.562 525.63 572.183 524.669C578.804 523.707 583.462 521.462 586.027 517.995C588.07 515.237 588.793 511.704 588.181 507.496ZM568.699 537.362C587.763 537.362 601.764 532.652 607.88 524.489L606.364 530.25C603.483 541.199 587.847 548 565.556 548C529.64 548 486.987 530.981 470.477 510.061C465.037 503.168 462.965 496.472 464.484 490.696L466.021 484.855C466.595 489.338 468.822 494.109 472.634 498.94C489.354 520.126 532.449 537.362 568.699 537.362Z" fill="#F5DF4D"/>
<path fill-rule="evenodd" clip-rule="evenodd" d="M1319 396.325C1309.74 405.931 1299.2 410.079 1290.88 407.557C1290.15 407.337 1289.44 407.065 1288.75 406.742L1287.76 406.278C1295.96 407.319 1305.38 402.978 1313.83 394.21C1329.52 377.934 1336.87 351.339 1330.23 334.926C1328.92 331.689 1327.16 329.043 1325.01 327.023L1325.98 327.477C1330.02 329.366 1333.22 332.987 1335.22 337.949C1341.75 354.081 1334.47 380.268 1319 396.325ZM1313.22 393.619C1304.56 402.601 1294.91 406.843 1286.74 405.257C1280.85 404.115 1276.36 400.073 1273.73 393.564C1267.2 377.432 1274.48 351.245 1289.95 335.188C1298.61 326.206 1308.26 321.964 1316.43 323.55C1317.82 323.821 1319.14 324.259 1320.37 324.848L1320.61 324.963C1324.46 326.89 1327.47 330.377 1329.44 335.243C1335.97 351.375 1328.69 377.562 1313.22 393.619ZM1287.27 353.942C1287.27 353.947 1287.26 353.953 1287.25 353.959C1286.02 355.307 1287.09 361.524 1289.64 367.843C1292.19 374.135 1295.25 378.157 1296.5 376.862C1296.5 376.856 1296.51 376.85 1296.51 376.844C1297.75 375.498 1296.68 369.28 1294.12 362.961C1291.58 356.669 1288.52 352.647 1287.27 353.942ZM1307.58 348.994C1305.04 342.702 1301.98 338.679 1300.73 339.975C1300.72 339.981 1300.72 339.986 1300.71 339.992C1299.48 341.34 1300.55 347.556 1303.1 353.876C1305.65 360.167 1308.71 364.19 1309.95 362.895C1309.96 362.889 1309.97 362.883 1309.97 362.877C1311.21 361.53 1310.14 355.313 1307.58 348.994ZM1322.68 343.762C1323.82 342.582 1324.41 341.586 1324.45 341.51L1324 341.144C1323.99 341.16 1323.46 342.051 1322.42 343.128C1321.5 344.083 1320.19 345.185 1318.49 345.955L1318.46 346.787C1319.49 346.319 1320.39 345.741 1321.16 345.14C1321.28 346.751 1321.61 352.555 1320.66 359.613C1320.01 364.46 1318.89 368.942 1317.33 372.934C1315.4 377.894 1312.78 382.113 1309.54 385.472C1306.3 388.831 1302.83 390.94 1299.21 391.742C1296.3 392.386 1293.29 392.192 1290.26 391.164C1285.85 389.67 1282.69 386.817 1281.81 385.974C1282.47 385.095 1283.18 384.009 1283.87 382.679L1283.39 382.379C1282.26 384.548 1281.09 386.022 1280.17 386.976C1279.13 388.053 1278.41 388.47 1278.39 388.478L1278.42 389.284C1278.48 389.25 1279.29 388.79 1280.43 387.609C1280.66 387.363 1280.92 387.085 1281.18 386.774C1281.95 387.534 1285.23 390.562 1289.84 392.13C1292.94 393.186 1296.04 393.386 1299.04 392.723C1302.81 391.89 1306.44 389.686 1309.83 386.176C1313.21 382.664 1315.95 378.261 1317.96 373.086C1319.57 368.968 1320.72 364.36 1321.39 359.39C1322.38 352.008 1321.99 345.975 1321.87 344.539C1322.17 344.276 1322.43 344.015 1322.68 343.762Z" fill="#F5DF4D"/>
<path fill-rule="evenodd" clip-rule="evenodd" d="M375.533 121.464C331.021 168.632 228.463 164.523 146.909 112.307C97.5754 80.7211 65.0934 37.2041 60.0184 -4.10192C57.0284 -28.4449 63.8754 -50.2429 79.8174 -67.1379C100.589 -89.1499 133.998 -99.9929 172.022 -99.9929C215.473 -99.9929 264.946 -85.8279 308.442 -57.9789C357.776 -26.3949 390.258 17.1221 395.333 58.4271C398.323 82.7701 391.477 104.569 375.533 121.464ZM245.273 -50.9769C245.243 -50.9959 245.214 -51.0149 245.185 -51.0339C238.601 -55.2509 219.255 -43.7929 201.848 -25.3469C184.365 -6.81892 175.456 11.7481 181.957 16.1191C181.986 16.1381 182.015 16.1581 182.045 16.1761C188.629 20.3921 207.974 8.93507 225.382 -9.51093C242.865 -28.0389 251.773 -46.6049 245.273 -50.9769ZM316.275 -5.51792C316.246 -5.53692 316.216 -5.55692 316.188 -5.57492C309.609 -9.78892 290.258 1.66608 272.851 20.1121C255.367 38.6401 246.463 57.2091 252.96 61.5781C252.988 61.5971 253.018 61.6171 253.047 61.6351C259.631 65.8501 278.981 54.3971 296.388 35.9511C313.872 17.4231 322.776 -1.14592 316.275 -5.51792ZM342.217 96.1091C337.363 93.0001 331.332 88.2641 325.797 81.4321L322.88 82.2241C326.274 86.4161 329.831 89.8701 333.234 92.6861C327.855 95.0341 308.403 102.922 282.462 106.407C264.624 108.804 247.26 108.68 230.843 106.041C210.442 102.761 191.443 95.5571 174.366 84.6241C157.289 73.6901 144.121 60.2981 135.233 44.8271C128.076 32.3731 123.642 18.5411 122.065 3.71307C119.762 -17.8779 124.255 -35.3679 125.685 -40.2169C129.81 -38.2179 134.707 -36.2549 140.419 -34.5959L140.631 -37.1199C131.228 -39.8519 124.165 -43.4989 119.311 -46.6069C113.834 -50.1129 111.168 -52.9349 111.12 -52.9879L108.379 -51.9849C108.601 -51.7439 111.56 -48.5909 117.561 -44.7489C118.847 -43.9249 120.273 -43.0699 121.841 -42.2059C120.534 -37.8839 115.623 -19.7139 118.017 2.86707C119.628 18.0711 124.18 32.2951 131.556 45.1371C140.819 61.2801 154.568 75.2571 172.42 86.6861C190.267 98.1121 210.107 105.641 231.385 109.052C248.31 111.769 266.166 111.892 284.457 109.429C311.595 105.77 331.751 97.3771 336.527 95.2581C337.891 96.2621 339.21 97.1621 340.461 97.9621C346.466 101.807 350.906 103.39 351.244 103.508L351.748 101.073C351.671 101.046 347.692 99.6141 342.217 96.1091ZM145.118 115.128C189.088 143.278 239.134 157.576 283.237 157.573C322.197 157.571 356.521 146.407 377.879 123.775C378.626 122.984 379.354 122.182 380.063 121.369L378.939 123.827C375.581 131.172 370.947 138.003 365.168 144.128C320.658 191.295 218.099 187.187 136.545 134.97C102.588 113.23 75.8884 85.1761 61.3654 55.9761C47.1424 27.3801 45.1244 -1.08492 55.6824 -24.1729L56.8594 -26.7469C56.7514 -25.9739 56.6814 -25.1889 56.5954 -24.4089C56.5414 -23.9129 56.4784 -23.4189 56.4324 -22.9199C56.3604 -22.1369 56.3104 -21.3469 56.2614 -20.5569C56.2244 -19.9719 56.1884 -19.3879 56.1634 -18.7999C56.1314 -18.0529 56.1084 -17.3029 56.0964 -16.5489C56.0854 -15.8629 56.0864 -15.1749 56.0904 -14.4849C56.0944 -13.8139 56.0954 -13.1439 56.1154 -12.4689C56.1464 -11.3849 56.2034 -10.2959 56.2734 -9.20393C56.2924 -8.91093 56.2974 -8.62292 56.3194 -8.32893C56.4274 -6.86292 56.5774 -5.38792 56.7544 -3.90792C56.7624 -3.83892 56.7664 -3.77093 56.7744 -3.70193C56.8054 -3.44693 56.8504 -3.19092 56.8844 -2.93492C57.0164 -1.91492 57.1584 -0.892921 57.3234 0.134079C57.3504 0.302078 57.3824 0.470078 57.4104 0.638077C57.6084 1.83408 57.8274 3.03207 58.0694 4.23508C58.0714 4.24508 58.0744 4.25507 58.0764 4.26508C60.1054 14.2981 63.6664 24.5631 68.7744 34.8341C83.5584 64.5571 110.671 93.0721 145.118 115.128Z" fill="#F5DF4D"/>
<path fill-rule="evenodd" clip-rule="evenodd" d="M1219.26 177.271C1205.8 184.837 1191.25 188.514 1178.32 187.626C1165.59 186.751 1155.49 181.544 1149.87 172.962C1153.29 175.915 1157.46 178.215 1162.28 179.766C1164.03 180.33 1165.84 180.786 1167.71 181.138C1182.03 183.84 1199.4 180.358 1215.35 171.397C1243.67 155.489 1259.8 126.886 1253.33 105.588C1254.02 106.663 1254.65 107.796 1255.19 108.964C1265.01 129.987 1248.89 160.63 1219.26 177.271ZM1214.76 170.351C1197.02 180.319 1177.53 183.411 1162.65 178.623C1153.61 175.717 1146.94 170.121 1143.36 162.441C1133.54 141.417 1149.66 110.775 1179.29 94.1334C1197.03 84.1646 1216.52 81.0712 1231.4 85.8608C1240.44 88.767 1247.11 94.3629 1250.69 102.043C1260.5 123.067 1244.39 153.709 1214.76 170.351ZM1183.78 128.995C1179.94 120.759 1174.9 115.21 1172.51 116.555C1172.5 116.561 1172.49 116.567 1172.48 116.573C1170.09 117.985 1171.29 125.838 1175.15 134.11C1179 142.346 1184.03 147.895 1186.43 146.55C1186.44 146.543 1186.45 146.537 1186.46 146.531C1188.84 145.12 1187.64 137.267 1183.78 128.995ZM1209.61 114.488C1205.76 106.252 1200.73 100.702 1198.33 102.048C1198.32 102.054 1198.31 102.06 1198.3 102.066C1195.92 103.477 1197.12 111.33 1200.98 119.602C1204.83 127.839 1209.86 133.388 1212.25 132.043C1212.26 132.036 1212.27 132.03 1212.28 132.024C1214.67 130.612 1213.47 122.76 1209.61 114.488ZM1240.05 108.084C1240.03 108.103 1238.96 109.092 1236.97 110.211C1235.21 111.203 1232.71 112.297 1229.57 112.908L1229.42 113.924C1231.33 113.554 1233.01 113.02 1234.46 112.433C1234.49 114.438 1234.42 121.637 1231.89 130.124C1230.15 135.954 1227.62 141.241 1224.35 145.84C1220.3 151.554 1215.09 156.221 1208.88 159.711C1202.67 163.2 1196.18 165.105 1189.58 165.375C1184.27 165.592 1178.88 164.759 1173.55 162.896C1165.8 160.189 1160.44 156.057 1158.97 154.848C1160.26 153.898 1161.65 152.703 1163.06 151.204L1162.22 150.74C1159.93 153.182 1157.66 154.763 1155.9 155.755C1153.9 156.873 1152.55 157.242 1152.52 157.249L1152.48 158.245C1152.59 158.215 1154.1 157.81 1156.28 156.583C1156.74 156.327 1157.22 156.036 1157.73 155.705C1159.03 156.792 1164.57 161.162 1172.68 164C1178.14 165.911 1183.68 166.77 1189.16 166.547C1196.04 166.269 1202.82 164.278 1209.31 160.632C1215.8 156.984 1221.24 152.113 1225.47 146.151C1228.83 141.408 1231.44 135.971 1233.21 129.993C1235.85 121.116 1235.86 113.625 1235.82 111.836C1236.38 111.571 1236.89 111.303 1237.36 111.04C1239.54 109.814 1240.72 108.708 1240.81 108.623L1240.05 108.084Z" fill="#F5DF4D"/>
</svg>
