<svg width="90" height="26" viewBox="0 0 90 26" fill="none" xmlns="http://www.w3.org/2000/svg">
<g clip-path="url(#clip0_23_200)">
<path d="M23.2017 7.67203L21.5248 7.09695L21.4843 7.08389L19.5902 6.42859H19.5724L20.3291 3.40112L16.3546 4.7625C16.2587 4.79556 16.1725 4.85227 16.1038 4.92749C16.0351 5.00273 15.986 5.09411 15.9609 5.19336L15.0212 8.94822V8.97443L14.9256 9.33809V9.36757L13.0672 16.7527L13.0429 16.7446L9.41359 15.5011L3.2032 13.3731L3.16432 13.3599L10.5866 10.8125L11.3611 7.71952V7.69495L11.6965 6.35159L9.57559 7.08389L9.53668 7.09695L0.375895 10.2342C0.266502 10.2718 0.171459 10.343 0.104062 10.4379C0.036663 10.5327 0.000279523 10.6466 0 10.7634V16.3547L8.4738 19.2576L9.4638 19.5967L12.1032 20.501H12.1275V20.5256L11.5166 22.965L15.3825 21.6413L15.423 21.6265C15.5412 21.5878 15.6478 21.5194 15.7328 21.4277C15.8178 21.336 15.8784 21.2241 15.9091 21.1023L16.6901 17.9798L16.9266 17.0362L18.6376 10.2031V10.1785H18.6554L22.2669 11.4153L27.7919 13.3075L27.753 13.3207L21.225 15.5634L20.308 19.2265L20.1087 20.0243L21.3725 19.5918L30.5706 16.4398C30.6803 16.4027 30.7755 16.3316 30.843 16.2366C30.9105 16.1417 30.9467 16.0276 30.9465 15.9107V10.321L23.2017 7.67203ZM15.5299 9.14644L15.4895 9.13166L15.5299 9.11859L15.5688 9.13166L15.5299 9.14644ZM19.2289 7.87846L19.2063 7.8866V7.85711L19.2273 7.84897L19.2289 7.87846Z" fill="white"/>
<path d="M47.7596 5.57001C47.7596 9.23965 46.2366 11.14 42.5748 11.14H38.7041V0H42.5748C46.2398 0 47.7596 1.88397 47.7596 5.57001ZM45.6533 5.57001C45.6533 2.86692 45.1024 2.12971 42.5748 2.12971H40.8104V9.0103H42.5748C45.1057 9.0103 45.6533 8.20758 45.6533 5.57001Z" fill="white"/>
<path d="M56.5444 7.7325H51.4245C51.6028 8.55164 52.1374 9.01033 53.6605 9.01033C54.446 9.02203 55.2298 8.93397 55.9936 8.74821V10.8452C55.1785 11.0553 54.3394 11.1544 53.4985 11.1401C49.754 11.1401 49.2178 8.46974 49.2178 6.92978C49.2178 4.5871 50.2239 2.70312 52.9135 2.70312C55.5383 2.70312 56.5429 4.45605 56.5429 6.74958L56.5444 7.7325ZM51.3435 6.09428H54.422C54.3572 5.16048 53.8873 4.83283 52.8827 4.83283C51.9106 4.83283 51.4408 5.20963 51.3435 6.09428Z" fill="white"/>
<path d="M65.6662 2.70312L63.0901 11.1401H59.8496L57.2734 2.70312H59.5094L61.3402 8.81376H61.5995L63.4303 2.70312H65.6662Z" fill="white"/>
<path d="M69.7154 9.01025V11.14H67.6089V9.01025H69.7154Z" fill="white"/>
<path d="M51.0908 14.2822V25.4223H48.9846V19.3771H48.7318L46.0746 24.5868H43.7415L41.0843 19.3771H40.825V25.4223H38.7188V14.2822H40.825L44.7784 22.0311H45.0376L48.991 14.2822H51.0908Z" fill="white"/>
<path d="M61.0232 23.2925V25.4223H57.8638V24.6031C57.4587 25.0291 56.8268 25.4223 55.6117 25.4223C53.635 25.4223 52.7114 24.1445 52.7114 22.6373C52.7114 21.1301 53.635 19.8523 55.6117 19.8523C56.8268 19.8523 57.4587 20.2291 57.8638 20.6714V19.1151H53.6511V16.9854H59.9701V23.2925H61.0232ZM57.8638 22.6373C57.8638 21.982 57.4425 21.7854 56.3407 21.7854C55.239 21.7854 54.8178 21.982 54.8178 22.6373C54.8178 23.2925 55.239 23.4892 56.3407 23.4892C57.4425 23.4892 57.8638 23.2925 57.8638 22.6373Z" fill="white"/>
<path d="M67.7797 19.1151H64.6688V25.4223H62.5625V16.9854H67.7797V19.1151Z" fill="white"/>
<path d="M71.4247 13.9546V25.4222H69.3188V13.9546H71.4247Z" fill="white"/>
<path d="M72.8833 21.1956C72.8833 18.7874 74.2928 16.9854 76.9177 16.9854C79.5426 16.9854 80.9522 18.7874 80.9522 21.1956C80.9522 23.6039 79.5426 25.4223 76.9177 25.4223C74.2928 25.4223 72.8833 23.6039 72.8833 21.1956ZM78.8456 21.1956C78.8456 19.5574 78.3435 19.1151 76.9177 19.1151C75.4919 19.1151 74.9898 19.5574 74.9898 21.1956C74.9898 22.8338 75.4919 23.2925 76.9177 23.2925C78.3435 23.2925 78.8456 22.8338 78.8456 21.1956Z" fill="white"/>
<path d="M89.9439 25.4223H87.838V19.1151H84.4356V25.4223H82.3291V16.9854H89.9439V25.4223Z" fill="white"/>
</g>
<defs>
<clipPath id="clip0_23_200">
<rect width="90" height="26" fill="white"/>
</clipPath>
</defs>
</svg>
