<svg width="28" height="28" viewBox="0 0 28 28" fill="none" xmlns="http://www.w3.org/2000/svg">
<path d="M23.8107 10.2989L17.7238 4.21967L19.7647 2.18135C20.3137 1.63304 20.9883 1.35888 21.7884 1.35888C22.5876 1.35888 23.2617 1.63304 23.8107 2.18135L25.8517 4.21967C26.4007 4.76799 26.6752 5.44123 26.6752 6.23939C26.6752 7.0385 26.4007 7.71222 25.8517 8.26054L23.8107 10.2989ZM1.10997 26.8914V20.8123L7.55499 14.3755L0 6.75862L6.76726 0L14.3581 7.61686L15.7187 6.25798L21.8056 12.3014L20.445 13.6603L28 21.2771L21.2685 28L13.6419 20.4189L7.19693 26.8914H1.10997ZM9.59591 12.3372L12.3171 9.61941L10.5985 7.90294L8.8798 9.58365L6.87468 7.5811L8.55754 5.86462L6.73146 4.07663L4.04604 6.79438L9.59591 12.3372ZM21.2327 23.9591L23.954 21.2414L22.1279 19.4534L20.445 21.1341L18.4041 19.1315L20.1228 17.4151L18.3683 15.6986L15.6471 18.4163L21.2327 23.9591Z" fill="black"/>
</svg>
