<svg width="109" height="71" viewBox="0 0 109 71" fill="none" xmlns="http://www.w3.org/2000/svg">
<path d="M0 10C0 4.47715 4.47715 0 10 0H73.5C93.1061 0 109 15.8939 109 35.5V61C109 66.5228 104.523 71 99 71H10C4.47715 71 0 66.5228 0 61V10Z" fill="white"/>
<path d="M96.2665 41.5121C95.528 41.5121 94.8062 41.2962 94.1922 40.8917C93.5782 40.4872 93.0997 39.9123 92.8171 39.2396C92.5345 38.567 92.4606 37.8268 92.6047 37.1127C92.7487 36.3987 93.1043 35.7428 93.6265 35.2279C94.1486 34.7131 94.8139 34.3625 95.5381 34.2205C96.2623 34.0784 97.013 34.1513 97.6952 34.43C98.3774 34.7086 98.9605 35.1804 99.3708 35.7858C99.781 36.3911 100 37.1028 100 37.8309C99.9986 38.8068 99.6048 39.7423 98.9049 40.4323C98.205 41.1224 97.2562 41.5107 96.2665 41.5121ZM96.2665 34.7628C95.651 34.7628 95.0494 34.9428 94.5377 35.2799C94.026 35.617 93.6271 36.0962 93.3916 36.6568C93.1561 37.2174 93.0945 37.8343 93.2145 38.4295C93.3346 39.0246 93.631 39.5713 94.0661 40.0004C94.5013 40.4295 95.0558 40.7217 95.6594 40.84C96.263 40.9584 96.8887 40.8977 97.4573 40.6655C98.0259 40.4332 98.5119 40.04 98.8538 39.5354C99.1957 39.0309 99.3782 38.4377 99.3782 37.8309C99.3775 37.0174 99.0494 36.2374 98.466 35.6622C97.8826 35.087 97.0915 34.7635 96.2665 34.7628Z" fill="#080708"/>
<path d="M94.2123 36.7962H95.7573V37.0907H95.1532V38.9165H94.8165V37.0907H94.2123V36.7962ZM95.9664 36.7962H96.4457L97.0498 38.4159H97.0648L97.6621 36.7962H98.14V38.9165H97.8033V37.2968H97.7965L97.1924 38.9165H96.9209L96.3086 37.2968H96.3018V38.9165H95.9664V36.7962Z" fill="#080708"/>
<path d="M17.201 58.3785C15.7456 58.3785 14.4748 58.0251 13.3887 57.3183C12.3026 56.5901 11.4663 55.6049 10.8798 54.3627C10.2933 53.099 10 51.6855 10 50.122C10 48.5585 10.2933 47.1449 10.8798 45.8813C11.4663 44.6176 12.3026 43.6324 13.3887 42.9256C14.4748 42.1974 15.7347 41.8333 17.1684 41.8333C18.3414 41.8333 19.3624 42.0903 20.2313 42.6044C21.1219 43.1184 21.7518 43.7716 22.1211 44.5641H22.1863V35.5044H25.6727V57.993H22.284V55.5835H22.2189C21.8279 56.376 21.1979 57.0399 20.329 57.5753C19.4818 58.1108 18.4392 58.3785 17.201 58.3785ZM13.519 50.122C13.519 51.814 13.8992 53.1633 14.6595 54.1699C15.4415 55.1766 16.5276 55.6799 17.9178 55.6799C19.3081 55.6799 20.3724 55.1873 21.111 54.2021C21.8496 53.1954 22.2189 51.8354 22.2189 50.122C22.2189 48.43 21.8387 47.0807 21.0784 46.074C20.3399 45.046 19.2646 44.532 17.8527 44.532C16.4841 44.532 15.4197 45.046 14.6595 46.074C13.8992 47.0807 13.519 48.43 13.519 50.122Z" fill="#080708"/>
<path d="M28.9201 42.251H32.374V57.993H28.9201V42.251ZM28.9201 35.5044H32.374V39.0062H28.9201V35.5044Z" fill="#080708"/>
<path d="M42.7048 64.1613C41.2494 64.1613 39.9678 63.9257 38.8599 63.4545C37.7738 62.9833 36.9266 62.3194 36.3184 61.4627C35.7319 60.6274 35.4386 59.685 35.4386 58.6355H38.8925C38.8925 59.4708 39.2509 60.1669 39.9678 60.7238C40.6846 61.2806 41.6187 61.559 42.77 61.559C44.0516 61.559 45.0508 61.1842 45.7676 60.4346C46.5062 59.7064 46.8755 58.6355 46.8755 57.222V54.3948H46.8103C45.7459 56.1939 44.095 57.0934 41.8576 57.0934C40.4457 57.0934 39.2075 56.7615 38.1431 56.0975C37.0787 55.4122 36.2532 54.4912 35.6667 53.3346C35.1019 52.1781 34.8195 50.9037 34.8195 49.5116C34.8195 48.1409 35.1019 46.8772 35.6667 45.7206C36.2315 44.5427 37.0352 43.6003 38.0779 42.8935C39.1423 42.1867 40.3913 41.8333 41.825 41.8333C44.0842 41.8333 45.7785 42.8186 46.9081 44.789H46.9732V42.251H50.3619V56.7401C50.3619 59.1174 49.6885 60.9486 48.3417 62.2337C46.995 63.5188 45.116 64.1613 42.7048 64.1613ZM38.1757 49.5116C38.1757 50.9466 38.5341 52.1353 39.2509 53.0776C39.9895 53.9986 41.0647 54.4591 42.4767 54.4591C43.9104 54.4591 45.0074 53.9879 45.7676 53.0455C46.5279 52.0817 46.9081 50.9037 46.9081 49.5116C46.9081 48.098 46.5279 46.92 45.7676 45.9777C45.0074 45.0353 43.9212 44.5641 42.5093 44.5641C41.0973 44.5641 40.0221 45.0353 39.2835 45.9777C38.5449 46.8986 38.1757 48.0766 38.1757 49.5116Z" fill="#080708"/>
<path d="M53.6124 42.251H57.0663V57.993H53.6124V42.251ZM53.6124 35.5044H57.0663V39.0062H53.6124V35.5044Z" fill="#080708"/>
<path d="M65.4746 58.3785C64.2147 58.3785 63.1938 58.0358 62.4118 57.3505C61.6515 56.6651 61.2713 55.5728 61.2713 54.0736V44.8532H59.2186V42.251H61.2713V37.5284H64.6926V42.251H67.8206V44.8532H64.6926V53.7202C64.6926 54.2984 64.8229 54.7375 65.0836 55.0374C65.366 55.3158 65.7244 55.4657 66.1589 55.4871C66.4847 55.5085 66.8214 55.4978 67.169 55.455C67.5165 55.4122 67.7663 55.3693 67.9184 55.3265V58.0251C67.6794 58.1108 67.321 58.1858 66.8431 58.25C66.387 58.3357 65.9308 58.3785 65.4746 58.3785Z" fill="#080708"/>
<path d="M74.4644 58.3785C72.8569 58.3785 71.5644 57.9823 70.5869 57.1898C69.6311 56.376 69.1533 55.2515 69.1533 53.8165C69.1533 52.6172 69.49 51.6855 70.1633 51.0215C70.8367 50.3362 71.6405 49.8436 72.5745 49.5437C73.5303 49.2439 74.6925 48.9976 76.061 48.8048C77.4512 48.612 78.4504 48.3979 79.0587 48.1623C79.6886 47.9053 80.0036 47.4769 80.0036 46.8772C80.0036 45.2495 78.9175 44.4356 76.7452 44.4356C75.5722 44.4356 74.7033 44.6605 74.1385 45.1102C73.5738 45.5386 73.2479 46.2133 73.161 47.1342H69.8049C69.8701 45.4851 70.5218 44.1893 71.7599 43.2469C72.9981 42.3045 74.649 41.8333 76.7127 41.8333C78.8414 41.8333 80.4706 42.3259 81.6002 43.3112C82.7515 44.275 83.3271 45.6564 83.3271 47.4555V54.1378C83.3271 54.7161 83.3923 55.123 83.5226 55.3586C83.6747 55.5728 83.8811 55.6799 84.1417 55.6799C84.3589 55.6799 84.5219 55.6692 84.6305 55.6478V57.9287C84.1091 58.1001 83.5552 58.1858 82.9687 58.1858C82.1215 58.1858 81.459 57.9502 80.9811 57.479C80.5032 57.0078 80.2425 56.4188 80.1991 55.712L80.1665 55.6156H80.1014C79.7103 56.4081 79.0044 57.072 77.9834 57.6075C76.9842 58.1215 75.8112 58.3785 74.4644 58.3785ZM72.4442 53.6238C72.4442 54.352 72.7049 54.9196 73.2262 55.3265C73.7693 55.712 74.497 55.9048 75.4093 55.9048C76.213 55.9048 76.9733 55.7334 77.6902 55.3907C78.407 55.0266 78.9826 54.5555 79.4171 53.9772C79.8515 53.3775 80.0688 52.7349 80.0688 52.0496V49.9292C79.6778 50.3147 78.4939 50.636 76.5171 50.893C75.2355 51.0858 74.2363 51.3749 73.5195 51.7604C72.8026 52.146 72.4442 52.7671 72.4442 53.6238Z" fill="#080708"/>
<path d="M86.6097 35.5044H90.0635V57.993H86.6097V35.5044Z" fill="#080708"/>
<path d="M11.0101 9H13.6819V31.4886H11.0101V9Z" fill="#080708"/>
<path d="M24.1196 31.8741C22.5339 31.8741 21.1545 31.5207 19.9815 30.8139C18.8302 30.0857 17.9505 29.1005 17.3423 27.8583C16.734 26.5946 16.4299 25.1811 16.4299 23.6176C16.4299 22.0755 16.734 20.6834 17.3423 19.4411C17.9722 18.1775 18.852 17.1816 19.9815 16.4534C21.1328 15.7252 22.4796 15.3611 24.0219 15.3611C26.4114 15.3611 28.2252 16.1535 29.4634 17.7384C30.7233 19.3019 31.3532 21.4758 31.3532 24.2601H19.1018C19.1452 25.8022 19.5905 27.0765 20.4377 28.0832C21.2849 29.0684 22.5231 29.561 24.1522 29.561C25.347 29.561 26.3028 29.2933 27.0196 28.7578C27.7582 28.201 28.2469 27.4835 28.4859 26.6054H31.1251C30.6907 28.1903 29.8761 29.4646 28.6814 30.4284C27.4866 31.3922 25.9661 31.8741 24.1196 31.8741ZM28.6488 22.1076C28.5402 20.6941 28.1057 19.6018 27.3454 18.8307C26.5851 18.0597 25.4773 17.6742 24.0219 17.6742C22.6099 17.6742 21.5021 18.0597 20.6984 18.8307C19.8946 19.6018 19.3842 20.6941 19.1669 22.1076H28.6488Z" fill="#080708"/>
<path d="M34.0795 15.7466H36.7514V17.9954H36.8166C37.3814 17.1173 38.0765 16.4641 38.9019 16.0357C39.7491 15.5859 40.6832 15.3611 41.7041 15.3611C43.4636 15.3611 44.8647 15.8537 45.9074 16.8389C46.9501 17.8241 47.4714 19.1841 47.4714 20.919V31.4886H44.7996V21.2723C44.7996 20.0301 44.4303 19.1306 43.6917 18.5737C42.9749 17.9954 42.1494 17.7063 41.2154 17.7063C40.3899 17.7063 39.6296 17.9098 38.9345 18.3167C38.2611 18.7236 37.7289 19.2484 37.3379 19.8909C36.9469 20.512 36.7514 21.1438 36.7514 21.7864V31.4886H34.0795V15.7466Z" fill="#080708"/>
<path d="M57.6556 31.8741C56.1567 31.8741 54.8317 31.5207 53.6804 30.8139C52.5291 30.0857 51.6385 29.0898 51.0085 27.8262C50.3786 26.5625 50.0636 25.1597 50.0636 23.6176C50.0636 22.0755 50.3677 20.6834 50.9759 19.4411C51.6059 18.1775 52.4965 17.1816 53.6478 16.4534C54.7991 15.7252 56.1241 15.3611 57.623 15.3611C59.5346 15.3611 61.1203 15.9179 62.3802 17.0316C63.6401 18.1454 64.3895 19.5803 64.6285 21.3366H61.9566C61.7828 20.2229 61.3158 19.334 60.5555 18.6701C59.8169 18.0061 58.8394 17.6742 57.623 17.6742C56.1024 17.6742 54.9077 18.231 54.0388 19.3448C53.1916 20.4371 52.768 21.8613 52.768 23.6176C52.768 25.3738 53.2025 26.8088 54.0714 27.9225C54.9403 29.0148 56.135 29.561 57.6556 29.561C58.872 29.561 59.8604 29.2183 60.6207 28.5329C61.381 27.8476 61.8371 26.9266 61.9892 25.7701H64.661C64.4221 27.5906 63.6727 29.0684 62.4128 30.2035C61.1746 31.3172 59.5889 31.8741 57.6556 31.8741Z" fill="#080708"/>
<path d="M65.9873 28.3723H69.1479V31.4886H65.9873V28.3723Z" fill="#080708"/>
</svg>
