<svg width="90" height="56" viewBox="0 0 90 56" fill="none" xmlns="http://www.w3.org/2000/svg">
<path d="M86.2665 32.5121C85.528 32.5121 84.8062 32.2962 84.1922 31.8917C83.5782 31.4872 83.0997 30.9123 82.8171 30.2396C82.5345 29.567 82.4606 28.8268 82.6047 28.1127C82.7487 27.3987 83.1043 26.7428 83.6265 26.2279C84.1486 25.7131 84.8139 25.3625 85.5381 25.2205C86.2623 25.0784 87.013 25.1513 87.6952 25.43C88.3774 25.7086 88.9605 26.1804 89.3708 26.7858C89.781 27.3911 90 28.1028 90 28.8309C89.9986 29.8068 89.6048 30.7423 88.9049 31.4323C88.205 32.1224 87.2562 32.5107 86.2665 32.5121ZM86.2665 25.7628C85.651 25.7628 85.0494 25.9428 84.5377 26.2799C84.026 26.617 83.6271 27.0962 83.3916 27.6568C83.1561 28.2174 83.0945 28.8343 83.2145 29.4295C83.3346 30.0246 83.631 30.5713 84.0661 31.0004C84.5013 31.4295 85.0558 31.7217 85.6594 31.84C86.263 31.9584 86.8887 31.8977 87.4573 31.6654C88.0259 31.4332 88.5119 31.04 88.8538 30.5354C89.1957 30.0309 89.3782 29.4377 89.3782 28.8309C89.3775 28.0174 89.0494 27.2374 88.466 26.6622C87.8826 26.087 87.0915 25.7635 86.2665 25.7628Z" fill="#080708"/>
<path d="M84.2123 27.7962H85.7573V28.0907H85.1532V29.9165H84.8165V28.0907H84.2123V27.7962ZM85.9664 27.7962H86.4457L87.0498 29.4159H87.0648L87.6621 27.7962H88.14V29.9165H87.8033V28.2968H87.7965L87.1924 29.9165H86.9209L86.3085 28.2968H86.3018V29.9165H85.9664V27.7962Z" fill="#080708"/>
<path d="M7.20098 49.3785C5.74558 49.3785 4.47482 49.0251 3.3887 48.3183C2.30258 47.5901 1.46626 46.6049 0.879758 45.3627C0.293252 44.099 0 42.6855 0 41.122C0 39.5585 0.293252 38.1449 0.879758 36.8813C1.46626 35.6176 2.30258 34.6324 3.3887 33.9256C4.47482 33.1974 5.73472 32.8333 7.16839 32.8333C8.3414 32.8333 9.36236 33.0904 10.2313 33.6044C11.1219 34.1184 11.7518 34.7716 12.1211 35.5641H12.1863V26.5044H15.6727V48.993H12.284V46.5835H12.2189C11.8279 47.376 11.1979 48.0399 10.329 48.5753C9.48183 49.1108 8.43916 49.3785 7.20098 49.3785ZM3.51903 41.122C3.51903 42.814 3.89917 44.1633 4.65946 45.1699C5.44146 46.1766 6.52758 46.6799 7.91782 46.6799C9.30805 46.6799 10.3724 46.1873 11.111 45.2021C11.8496 44.1954 12.2189 42.8354 12.2189 41.122C12.2189 39.43 11.8387 38.0807 11.0784 37.074C10.3399 36.046 9.26461 35.532 7.85265 35.532C6.48414 35.532 5.41974 36.046 4.65946 37.074C3.89917 38.0807 3.51903 39.43 3.51903 41.122Z" fill="#080708"/>
<path d="M18.9201 33.251H22.374V48.993H18.9201V33.251ZM18.9201 26.5044H22.374V30.0062H18.9201V26.5044Z" fill="#080708"/>
<path d="M32.7048 55.1613C31.2494 55.1613 29.9678 54.9257 28.8599 54.4545C27.7738 53.9833 26.9266 53.3194 26.3184 52.4627C25.7319 51.6274 25.4386 50.685 25.4386 49.6355H28.8925C28.8925 50.4708 29.2509 51.1669 29.9678 51.7238C30.6846 52.2806 31.6187 52.559 32.77 52.559C34.0516 52.559 35.0508 52.1842 35.7676 51.4346C36.5062 50.7064 36.8755 49.6355 36.8755 48.222V45.3948H36.8103C35.7459 47.1939 34.095 48.0934 31.8576 48.0934C30.4457 48.0934 29.2075 47.7615 28.1431 47.0975C27.0787 46.4122 26.2532 45.4912 25.6667 44.3346C25.1019 43.1781 24.8195 41.9037 24.8195 40.5116C24.8195 39.1409 25.1019 37.8772 25.6667 36.7206C26.2315 35.5427 27.0352 34.6003 28.0779 33.8935C29.1423 33.1867 30.3913 32.8333 31.825 32.8333C34.0842 32.8333 35.7785 33.8186 36.9081 35.789H36.9732V33.251H40.3619V47.7401C40.3619 50.1174 39.6885 51.9486 38.3417 53.2337C36.995 54.5188 35.116 55.1613 32.7048 55.1613ZM28.1757 40.5116C28.1757 41.9466 28.5341 43.1353 29.2509 44.0776C29.9895 44.9986 31.0647 45.4591 32.4767 45.4591C33.9104 45.4591 35.0074 44.9879 35.7676 44.0455C36.5279 43.0817 36.9081 41.9037 36.9081 40.5116C36.9081 39.098 36.5279 37.92 35.7676 36.9777C35.0074 36.0353 33.9212 35.5641 32.5093 35.5641C31.0973 35.5641 30.0221 36.0353 29.2835 36.9777C28.5449 37.8986 28.1757 39.0766 28.1757 40.5116Z" fill="#080708"/>
<path d="M43.6124 33.251H47.0663V48.993H43.6124V33.251ZM43.6124 26.5044H47.0663V30.0062H43.6124V26.5044Z" fill="#080708"/>
<path d="M55.4746 49.3785C54.2147 49.3785 53.1938 49.0358 52.4118 48.3505C51.6515 47.6651 51.2713 46.5728 51.2713 45.0736V35.8532H49.2186V33.251H51.2713V28.5284H54.6926V33.251H57.8206V35.8532H54.6926V44.7202C54.6926 45.2984 54.8229 45.7375 55.0836 46.0373C55.366 46.3158 55.7244 46.4657 56.1589 46.4871C56.4847 46.5085 56.8214 46.4978 57.169 46.455C57.5165 46.4122 57.7663 46.3693 57.9184 46.3265V49.0251C57.6794 49.1108 57.321 49.1858 56.8431 49.25C56.387 49.3357 55.9308 49.3785 55.4746 49.3785Z" fill="#080708"/>
<path d="M64.4644 49.3785C62.8569 49.3785 61.5644 48.9823 60.5869 48.1898C59.6311 47.376 59.1533 46.2515 59.1533 44.8165C59.1533 43.6171 59.49 42.6855 60.1633 42.0215C60.8367 41.3362 61.6405 40.8436 62.5745 40.5437C63.5303 40.2439 64.6925 39.9976 66.061 39.8048C67.4512 39.612 68.4504 39.3979 69.0587 39.1623C69.6886 38.9053 70.0036 38.4769 70.0036 37.8772C70.0036 36.2495 68.9175 35.4356 66.7452 35.4356C65.5722 35.4356 64.7033 35.6605 64.1385 36.1102C63.5738 36.5386 63.2479 37.2133 63.161 38.1342H59.8049C59.8701 36.4851 60.5218 35.1893 61.7599 34.2469C62.9981 33.3045 64.649 32.8333 66.7127 32.8333C68.8414 32.8333 70.4706 33.3259 71.6002 34.3112C72.7515 35.275 73.3271 36.6564 73.3271 38.4555V45.1378C73.3271 45.7161 73.3923 46.123 73.5226 46.3586C73.6747 46.5728 73.8811 46.6799 74.1417 46.6799C74.3589 46.6799 74.5219 46.6692 74.6305 46.6478V48.9287C74.1091 49.1001 73.5552 49.1858 72.9687 49.1858C72.1215 49.1858 71.459 48.9502 70.9811 48.479C70.5032 48.0078 70.2425 47.4188 70.1991 46.712L70.1665 46.6156H70.1013C69.7104 47.4081 69.0044 48.072 67.9834 48.6075C66.9842 49.1215 65.8112 49.3785 64.4644 49.3785ZM62.4442 44.6238C62.4442 45.352 62.7049 45.9196 63.2262 46.3265C63.7693 46.712 64.497 46.9048 65.4093 46.9048C66.213 46.9048 66.9733 46.7334 67.6902 46.3907C68.407 46.0266 68.9826 45.5555 69.4171 44.9772C69.8515 44.3775 70.0688 43.7349 70.0688 43.0496V40.9292C69.6778 41.3147 68.4939 41.636 66.5172 41.893C65.2355 42.0858 64.2363 42.3749 63.5195 42.7604C62.8026 43.146 62.4442 43.7671 62.4442 44.6238Z" fill="#080708"/>
<path d="M76.6097 26.5044H80.0635V48.993H76.6097V26.5044Z" fill="#080708"/>
<path d="M1.01009 0H3.68195V22.4886H1.01009V0Z" fill="#080708"/>
<path d="M14.1196 22.8741C12.5339 22.8741 11.1545 22.5207 9.98153 21.8139C8.83024 21.0857 7.95049 20.1005 7.34226 18.8583C6.73403 17.5946 6.42992 16.1811 6.42992 14.6176C6.42992 13.0755 6.73403 11.6834 7.34226 10.4411C7.97221 9.17749 8.85197 8.18156 9.98153 7.45336C11.1328 6.72516 12.4796 6.36106 14.0219 6.36106C16.4114 6.36106 18.2252 7.15351 19.4634 8.73842C20.7233 10.3019 21.3532 12.4758 21.3532 15.2601H9.10177C9.14522 16.8022 9.59053 18.0765 10.4377 19.0832C11.2849 20.0684 12.5231 20.561 14.1522 20.561C15.347 20.561 16.3028 20.2933 17.0196 19.7578C17.7582 19.201 18.2469 18.4835 18.4859 17.6054H21.1251C20.6907 19.1903 19.8761 20.4646 18.6814 21.4284C17.4866 22.3922 15.9661 22.8741 14.1196 22.8741ZM18.6488 13.1076C18.5402 11.6941 18.1057 10.6018 17.3454 9.83073C16.5851 9.05969 15.4773 8.67417 14.0219 8.67417C12.6099 8.67417 11.5021 9.05969 10.6984 9.83073C9.89464 10.6018 9.38416 11.6941 9.16694 13.1076H18.6488Z" fill="#080708"/>
<path d="M24.0795 6.74658H26.7514V8.99543H26.8166C27.3813 8.11731 28.0765 7.46407 28.9019 7.03572C29.7491 6.58594 30.6832 6.36106 31.7041 6.36106C33.4636 6.36106 34.8647 6.85366 35.9074 7.83888C36.9501 8.82409 37.4714 10.1841 37.4714 11.919V22.4886H34.7995V12.2723C34.7995 11.0301 34.4303 10.1306 33.6917 9.57371C32.9749 8.99544 32.1494 8.7063 31.2154 8.7063C30.3899 8.7063 29.6296 8.90976 28.9345 9.3167C28.2611 9.72364 27.7289 10.2484 27.3379 10.8909C26.9469 11.512 26.7514 12.1438 26.7514 12.7864V22.4886H24.0795V6.74658Z" fill="#080708"/>
<path d="M47.6556 22.8741C46.1567 22.8741 44.8317 22.5207 43.6804 21.8139C42.5291 21.0857 41.6385 20.0898 41.0085 18.8262C40.3786 17.5625 40.0636 16.1597 40.0636 14.6176C40.0636 13.0755 40.3677 11.6834 40.9759 10.4411C41.6059 9.17749 42.4965 8.18156 43.6478 7.45336C44.7991 6.72516 46.1241 6.36106 47.623 6.36106C49.5346 6.36106 51.1203 6.91792 52.3802 8.03164C53.6401 9.14536 54.3895 10.5803 54.6285 12.3366H51.9566C51.7828 11.2229 51.3158 10.334 50.5555 9.67009C49.8169 9.00614 48.8394 8.67417 47.623 8.67417C46.1024 8.67417 44.9077 9.23103 44.0388 10.3448C43.1916 11.4371 42.768 12.8613 42.768 14.6176C42.768 16.3738 43.2025 17.8088 44.0714 18.9225C44.9403 20.0148 46.135 20.561 47.6556 20.561C48.872 20.561 49.8604 20.2183 50.6207 19.5329C51.381 18.8476 51.8371 17.9266 51.9892 16.7701H54.661C54.4221 18.5906 53.6727 20.0684 52.4128 21.2035C51.1746 22.3172 49.5889 22.8741 47.6556 22.8741Z" fill="#080708"/>
<path d="M55.9873 19.3723H59.1479V22.4886H55.9873V19.3723Z" fill="#080708"/>
</svg>
