<svg width="33" height="22" viewBox="0 0 33 22" fill="none" xmlns="http://www.w3.org/2000/svg">
<path d="M0 0H32.25V21.5H0V0ZM16.125 5.375C17.5505 5.375 18.9177 5.94129 19.9257 6.9493C20.9337 7.95731 21.5 9.32446 21.5 10.75C21.5 12.1755 20.9337 13.5427 19.9257 14.5507C18.9177 15.5587 17.5505 16.125 16.125 16.125C14.6995 16.125 13.3323 15.5587 12.3243 14.5507C11.3163 13.5427 10.75 12.1755 10.75 10.75C10.75 9.32446 11.3163 7.95731 12.3243 6.9493C13.3323 5.94129 14.6995 5.375 16.125 5.375ZM7.16667 3.58333C7.16667 4.53369 6.78914 5.44513 6.11713 6.11713C5.44513 6.78914 4.53369 7.16667 3.58333 7.16667V14.3333C4.53369 14.3333 5.44513 14.7109 6.11713 15.3829C6.78914 16.0549 7.16667 16.9663 7.16667 17.9167H25.0833C25.0833 16.9663 25.4609 16.0549 26.1329 15.3829C26.8049 14.7109 27.7163 14.3333 28.6667 14.3333V7.16667C27.7163 7.16667 26.8049 6.78914 26.1329 6.11713C25.4609 5.44513 25.0833 4.53369 25.0833 3.58333H7.16667Z" fill="#080708"/>
</svg>
