<svg width="630" height="256" viewBox="0 0 630 256" fill="none" xmlns="http://www.w3.org/2000/svg">
<path d="M11.52 255.972H34.56V94.6917H44.8V76.7717H1.28V94.6917H11.52V255.972ZM48.56 255.972H63.408V76.7717H48.56V255.972ZM68.56 76.7717H83.664L92.88 105.956L101.84 76.7717H116.944V255.972H98V125.924L92.88 143.588L87.504 125.924V255.972H68.56V76.7717ZM122.06 255.972H142.796V246.756H132.556V170.98H142.796V161.764H132.556V85.7317H142.796V76.7717H122.06V255.972ZM174.77 255.972H187.314V87.2677H197.554V76.7717H164.53V87.2677H174.77V255.972ZM255.07 83.4277C255.07 79.8437 251.998 76.7717 248.414 76.7717H207.966C204.382 76.7717 201.31 79.8437 201.31 83.4277V249.316C201.31 252.9 204.382 255.972 207.966 255.972H248.414C251.998 255.972 255.07 252.9 255.07 249.316V83.4277ZM232.03 234.98C232.03 236.772 230.75 238.052 228.958 238.052H227.422C225.63 238.052 224.35 236.772 224.35 234.98V97.7637C224.35 95.9717 225.63 94.6917 227.422 94.6917H228.958C230.75 94.6917 232.03 95.9717 232.03 97.7637V234.98ZM325.64 249.316C325.64 251.193 324.957 252.814 323.592 254.18C322.397 255.374 320.861 255.972 318.984 255.972H286.216C284.339 255.972 282.717 255.374 281.352 254.18C280.157 252.814 279.56 251.193 279.56 249.316V77.0277H298.504V237.796C298.504 239.844 299.528 240.868 301.576 240.868H303.624C305.672 240.868 306.696 239.844 306.696 237.796V77.0277H325.64V249.316ZM380.73 83.4277C380.73 79.8437 377.658 76.7717 374.074 76.7717H330.81V255.972H351.802V194.788H374.074C377.658 194.788 380.73 191.716 380.73 188.132V83.4277ZM359.738 175.332C359.738 177.124 358.458 178.404 356.666 178.404H351.802V93.1557H356.666C358.458 93.1557 359.738 94.4357 359.738 96.2277V175.332ZM385.81 249.316C385.81 252.9 388.882 255.972 392.466 255.972H416.274V162.532H400.658V171.748H405.778V246.756H399.378C397.586 246.756 396.306 245.476 396.306 243.684V88.8037C396.306 87.0117 397.586 85.7317 399.378 85.7317H405.778V153.06H416.274V76.7717H392.466C388.882 76.7717 385.81 79.8437 385.81 83.4277V249.316ZM475.07 255.972V180.452C475.07 177.636 472.766 174.82 469.95 174.052C472.766 173.284 475.07 170.468 475.07 167.652V83.4277C475.07 79.8437 471.998 76.7717 468.414 76.7717H421.31V255.972H444.35V183.012H448.958C450.75 183.012 452.03 184.292 452.03 186.084V255.972H475.07ZM452.03 162.02C452.03 163.812 450.75 165.092 448.958 165.092H444.35V94.6917H448.958C450.75 94.6917 452.03 95.9717 452.03 97.7637V162.02ZM480.31 255.972H495.158V200.932H504.118V255.972H518.966V83.4277C518.966 79.8437 515.894 76.7717 512.31 76.7717H486.966C483.382 76.7717 480.31 79.8437 480.31 83.4277V255.972ZM495.158 91.8757C495.158 90.0837 496.438 88.8037 498.23 88.8037H501.046C502.838 88.8037 504.118 90.0837 504.118 91.8757V188.9H495.158V91.8757ZM569.89 249.316C569.89 251.193 569.293 252.814 568.098 254.18C566.903 255.374 565.282 255.972 563.234 255.972H523.81V76.7717H563.234C567.671 76.7717 569.89 78.9903 569.89 83.4277V249.316ZM550.946 94.6917C550.946 92.6437 549.922 91.6197 547.874 91.6197H542.754V240.868H547.874C549.922 240.868 550.946 239.844 550.946 237.796V94.6917ZM575.06 255.972H600.148V243.94H589.908V172.26H600.148V160.228H589.908V88.8037H600.148V76.7717H575.06V255.972ZM627.1 215.012V76.7717H604.06V215.012H627.1ZM627.1 255.972V232.932H604.06V255.972H627.1Z" fill="black"/>
<path d="M367 55.2328C367 84.693 343.883 108.466 315.5 108.466C287.117 108.466 264 84.693 264 55.2328C264 25.7726 287.117 2 315.5 2C343.883 2 367 25.7726 367 55.2328Z" fill="#080708" stroke="#3772FF" stroke-width="4"/>
<path d="M297.567 75.0404L293.177 70.5075L323.284 39.4247H296.313V32.9492H333.947V71.8026H327.675V43.9576L297.567 75.0404Z" fill="#DF2935"/>
</svg>
