<svg width="630" height="337" viewBox="0 0 630 337" fill="none" xmlns="http://www.w3.org/2000/svg">
<path d="M11.52 93.72H1.28V75.8H44.8V93.72H34.56V255H11.52V93.72ZM48.56 255H63.408V75.8H48.56V255ZM68.56 75.8H83.664L92.88 104.984L101.84 75.8H116.944V255H98V124.952L92.88 142.616L87.504 124.952V255H68.56V75.8ZM122.06 75.8H142.796V84.76H132.556V160.792H142.796V170.008H132.556V245.784H142.796V255H122.06V75.8ZM174.77 86.296H164.53V75.8H197.554V86.296H187.314V255H174.77V86.296ZM255.07 248.344C255.07 250.221 254.387 251.843 253.022 253.208C251.827 254.403 250.291 255 248.414 255H207.966C206.089 255 204.467 254.403 203.102 253.208C201.907 251.843 201.31 250.221 201.31 248.344V82.456C201.31 80.5787 201.907 79.0427 203.102 77.848C204.467 76.4827 206.089 75.8 207.966 75.8H248.414C250.291 75.8 251.827 76.4827 253.022 77.848C254.387 79.0427 255.07 80.5787 255.07 82.456V248.344ZM232.03 96.792C232.03 94.744 231.006 93.72 228.958 93.72H227.422C225.374 93.72 224.35 94.744 224.35 96.792V234.008C224.35 236.056 225.374 237.08 227.422 237.08H228.958C231.006 237.08 232.03 236.056 232.03 234.008V96.792ZM325.64 248.344C325.64 250.221 324.957 251.843 323.592 253.208C322.397 254.403 320.861 255 318.984 255H286.216C284.339 255 282.717 254.403 281.352 253.208C280.157 251.843 279.56 250.221 279.56 248.344V76.056H298.504V236.824C298.504 238.872 299.528 239.896 301.576 239.896H303.624C305.672 239.896 306.696 238.872 306.696 236.824V76.056H325.64V248.344ZM380.73 82.456C380.73 78.872 377.658 75.8 374.074 75.8H330.81V255H351.802V193.816H374.074C377.658 193.816 380.73 190.744 380.73 187.16V82.456ZM359.738 174.36C359.738 176.152 358.458 177.432 356.666 177.432H351.802V92.184H356.666C358.458 92.184 359.738 93.464 359.738 95.256V174.36ZM385.81 82.456C385.81 80.5787 386.407 79.0427 387.602 77.848C388.967 76.4827 390.589 75.8 392.466 75.8H416.274V152.088H405.778V84.76H399.378C397.33 84.76 396.306 85.784 396.306 87.832V242.712C396.306 244.76 397.33 245.784 399.378 245.784H405.778V170.776H400.658V161.56H416.274V255H392.466C390.589 255 388.967 254.403 387.602 253.208C386.407 251.843 385.81 250.221 385.81 248.344V82.456ZM452.03 255V185.112C452.03 183.064 451.006 182.04 448.958 182.04H444.35V255H421.31V75.8H468.414C470.291 75.8 471.827 76.4827 473.022 77.848C474.387 79.0427 475.07 80.5787 475.07 82.456V166.68C475.07 168.045 474.558 169.411 473.534 170.776C472.51 171.971 471.315 172.739 469.95 173.08C471.315 173.421 472.51 174.275 473.534 175.64C474.558 176.835 475.07 178.115 475.07 179.48V255H452.03ZM452.03 96.792C452.03 94.744 451.006 93.72 448.958 93.72H444.35V164.12H448.958C451.006 164.12 452.03 163.096 452.03 161.048V96.792ZM480.31 255H495.158V199.96H504.118V255H518.966V82.456C518.966 78.872 515.894 75.8 512.31 75.8H486.966C483.382 75.8 480.31 78.872 480.31 82.456V255ZM495.158 90.904C495.158 89.112 496.438 87.832 498.23 87.832H501.046C502.838 87.832 504.118 89.112 504.118 90.904V187.928H495.158V90.904ZM569.89 248.344C569.89 250.221 569.293 251.843 568.098 253.208C566.903 254.403 565.282 255 563.234 255H523.81V75.8H563.234C567.671 75.8 569.89 78.0187 569.89 82.456V248.344ZM550.946 93.72C550.946 91.672 549.922 90.648 547.874 90.648H542.754V239.896H547.874C549.922 239.896 550.946 238.872 550.946 236.824V93.72ZM575.06 255H600.148V242.968H589.908V171.288H600.148V159.256H589.908V87.832H600.148V75.8H575.06V255ZM604.06 214.04V75.8H627.1V214.04H604.06ZM604.06 255V231.96H627.1V255H604.06Z" fill="black"/>
<circle cx="315.5" cy="53.5" r="51.5" fill="#080708" stroke="#3772FF" stroke-width="4"/>
<path d="M297.567 72.6862L293.177 68.2955L323.284 38.1879H296.313V31.9155H333.947V69.55H327.675V42.5786L297.567 72.6862Z" fill="#DF2935"/>
</svg>
