<svg width="464" height="413" viewBox="0 0 464 413" fill="none" xmlns="http://www.w3.org/2000/svg">
<rect x="27.7673" y="70.6067" width="347" height="347" rx="10.5" transform="rotate(-11.4424 27.7673 70.6067)" fill="#FDCA40" stroke="url(#paint0_linear_52_6)" stroke-width="3"/>
<path d="M105.768 96.8L85.4875 206H116.376L125.892 167.468H127.764L118.248 206H149.136L183.768 96.8H155.688L142.272 157.016H140.4L153.816 96.8H135.72L119.184 157.016H117.312L133.848 96.8H105.768ZM219.778 121.136L225.862 96.8H185.302L158.158 206H198.562L204.646 181.664H192.166L197.47 160.604H209.95L216.034 136.268H203.554L207.298 121.136H219.778ZM227.958 96.8L200.814 206H229.518C248.55 206 262.902 196.016 267.114 179.168L267.582 177.14C271.638 161.072 263.214 151.088 256.506 151.088L256.974 149.216C263.994 149.216 275.07 140.792 279.126 124.412L279.282 123.632C283.494 106.472 275.226 96.8 256.662 96.8H227.958ZM249.954 121.136H250.266C251.826 121.136 251.826 121.448 251.202 123.632L248.238 135.488C247.77 137.672 247.614 137.984 246.054 137.984H245.742L249.954 121.136ZM239.814 162.32H240.126C241.686 162.32 241.53 162.632 241.062 164.816L237.474 179.168C237.006 181.352 236.85 181.664 235.29 181.664H234.978L239.814 162.32Z" fill="#DF2935"/>
<path d="M368.88 122.54C371.844 110.528 380.58 103.508 391.5 103.508C402.42 103.508 406.476 110.528 403.512 122.54L401.64 129.716H411L412.716 123.008C416.928 105.692 409.596 95.24 392.748 95.24C376.056 95.24 363.732 105.536 359.364 123.008L358.584 125.972C355.308 139.544 358.116 148.904 369.816 151.088L369.66 151.868C356.712 154.052 349.38 163.412 345.948 176.984L345.168 179.948C340.956 197.108 348.132 207.716 361.236 207.716C371.376 207.716 381.516 201.32 387.912 191.024H388.536L384.792 206H391.968L404.76 154.832H411.78L413.496 148.124H406.476L408.816 138.608H399.456L397.116 148.124H379.176C368.256 148.124 364.2 141.104 367.164 129.248L368.88 122.54ZM395.4 154.832L390.72 173.396C386.976 188.528 375.588 199.448 364.668 199.448C355.464 199.448 351.564 191.648 354.372 180.416L356.088 173.552C359.052 161.852 367.632 154.832 378.396 154.832H395.4Z" fill="#DF2935"/>
<path d="M345.88 122.54C348.844 110.528 357.58 103.508 368.5 103.508C379.42 103.508 383.476 110.528 380.512 122.54L378.64 129.716H388L389.716 123.008C393.928 105.692 386.596 95.24 369.748 95.24C353.056 95.24 340.732 105.536 336.364 123.008L335.584 125.972C332.308 139.544 335.116 148.904 346.816 151.088L346.66 151.868C333.712 154.052 326.38 163.412 322.948 176.984L322.168 179.948C317.956 197.108 325.132 207.716 338.236 207.716C348.376 207.716 358.516 201.32 364.912 191.024H365.536L361.792 206H368.968L381.76 154.832H388.78L390.496 148.124H383.476L385.816 138.608H376.456L374.116 148.124H356.176C345.256 148.124 341.2 141.104 344.164 129.248L345.88 122.54ZM372.4 154.832L367.72 173.396C363.976 188.528 352.588 199.448 341.668 199.448C332.464 199.448 328.564 191.648 331.372 180.416L333.088 173.552C336.052 161.852 344.632 154.832 355.396 154.832H372.4Z" fill="url(#paint1_linear_52_6)"/>
<path d="M319.88 122.54C322.844 110.528 331.58 103.508 342.5 103.508C353.42 103.508 357.476 110.528 354.512 122.54L352.64 129.716H362L363.716 123.008C367.928 105.692 360.596 95.24 343.748 95.24C327.056 95.24 314.732 105.536 310.364 123.008L309.584 125.972C306.308 139.544 309.116 148.904 320.816 151.088L320.66 151.868C307.712 154.052 300.38 163.412 296.948 176.984L296.168 179.948C291.956 197.108 299.132 207.716 312.236 207.716C322.376 207.716 332.516 201.32 338.912 191.024H339.536L335.792 206H342.968L355.76 154.832H362.78L364.496 148.124H357.476L359.816 138.608H350.456L348.116 148.124H330.176C319.256 148.124 315.2 141.104 318.164 129.248L319.88 122.54ZM346.4 154.832L341.72 173.396C337.976 188.528 326.588 199.448 315.668 199.448C306.464 199.448 302.564 191.648 305.372 180.416L307.088 173.552C310.052 161.852 318.632 154.832 329.396 154.832H346.4Z" fill="url(#paint2_linear_52_6)"/>
<path d="M296.88 122.54C299.844 110.528 308.58 103.508 319.5 103.508C330.42 103.508 334.476 110.528 331.512 122.54L329.64 129.716H339L340.716 123.008C344.928 105.692 337.596 95.24 320.748 95.24C304.056 95.24 291.732 105.536 287.364 123.008L286.584 125.972C283.308 139.544 286.116 148.904 297.816 151.088L297.66 151.868C284.712 154.052 277.38 163.412 273.948 176.984L273.168 179.948C268.956 197.108 276.132 207.716 289.236 207.716C299.376 207.716 309.516 201.32 315.912 191.024H316.536L312.792 206H319.968L332.76 154.832H339.78L341.496 148.124H334.476L336.816 138.608H327.456L325.116 148.124H307.176C296.256 148.124 292.2 141.104 295.164 129.248L296.88 122.54ZM323.4 154.832L318.72 173.396C314.976 188.528 303.588 199.448 292.668 199.448C283.464 199.448 279.564 191.648 282.372 180.416L284.088 173.552C287.052 161.852 295.632 154.832 306.396 154.832H323.4Z" fill="url(#paint3_linear_52_6)"/>
<path d="M81.2355 209.8L54.0915 319H79.8315L91.2195 259.72H93.0915L82.1715 319H99.1755L117.896 259.72H119.612L101.672 319H127.412L154.556 209.8H118.988L104.012 269.704H102.14L117.116 209.8H81.2355ZM149.938 237.1L136.366 291.544C131.686 310.42 139.33 320.56 157.738 320.56C176.458 320.56 189.718 310.108 194.398 291.544L207.97 237.1C212.494 218.692 204.382 208.24 185.662 208.24C167.254 208.24 154.618 218.224 149.938 237.1ZM178.486 235.072C178.954 233.2 179.422 232.576 180.046 232.576C180.67 232.576 180.826 233.2 180.358 235.072L165.85 293.728C165.382 295.444 164.914 296.224 164.29 296.224C163.666 296.224 163.51 295.444 163.978 293.728L178.486 235.072ZM216.669 209.8L189.525 319H218.229C237.261 319 251.613 309.016 255.825 292.168L256.293 290.14C260.349 274.072 251.925 264.088 245.217 264.088L245.685 262.216C252.705 262.216 263.781 253.792 267.837 237.412L267.993 236.632C272.205 219.472 263.937 209.8 245.373 209.8H216.669ZM238.665 234.136H238.977C240.537 234.136 240.537 234.448 239.913 236.632L236.949 248.488C236.481 250.672 236.325 250.984 234.765 250.984H234.453L238.665 234.136ZM228.525 275.32H228.837C230.397 275.32 230.241 275.632 229.773 277.816L226.185 292.168C225.717 294.352 225.561 294.664 224.001 294.664H223.689L228.525 275.32ZM277.911 209.8L250.767 319H278.847L305.991 209.8H277.911ZM308.075 209.8L280.931 319H321.491L327.419 294.664H314.939L336.155 209.8H308.075ZM384.598 234.136L390.682 209.8H350.122L322.978 319H363.382L369.466 294.664H356.986L362.29 273.604H374.77L380.854 249.268H368.374L372.118 234.136H384.598Z" fill="#DF2935"/>
<path d="M71.2028 185.885C81.6008 181.136 91.4524 174.996 100 167.342C100.884 166.711 100.843 165.406 100.212 164.522C99.5391 163.89 98.2766 163.679 97.3925 164.31C89.1394 171.755 79.6248 177.431 69.3113 181.676C64.3019 183.693 59.0401 185.668 53.6524 186.844C50.9585 187.431 48.2647 188.019 45.6131 188.354L44.0137 188.606C43.2562 188.479 42.5409 188.1 41.7834 187.973C41.026 187.847 40.2685 187.72 39.2585 187.551C38.7113 187.719 38.4588 187.677 37.7013 187.55C37.6591 187.803 37.4066 187.76 37.1541 187.718L36.8594 187.928C36.6069 187.886 36.3122 188.097 36.0597 188.054C36.0597 188.054 35.428 188.727 35.0911 189.19C35.0488 189.443 34.7119 189.905 34.8799 190.453C34.8377 190.705 34.7955 190.958 34.7533 191.21C34.9635 191.505 34.9213 191.757 34.9213 191.757C35.1316 192.052 35.5943 192.389 35.8046 192.684C36.0571 192.726 36.0148 192.978 36.2673 193.021C36.7301 193.358 36.9826 193.4 37.2351 193.442C37.7401 193.526 37.7401 193.526 37.9926 193.569C38.4976 193.653 39.0025 193.738 39.5075 193.822C40.265 193.949 41.0647 193.823 41.8222 193.95L42.6219 193.824C43.1269 193.908 43.5896 194.245 44.0946 194.33C46.4929 195.509 48.8911 196.689 51.2472 198.121C52.4252 198.837 53.6032 199.554 54.5287 200.228C55.7067 200.944 56.8425 201.912 57.7258 202.839C58.9038 203.555 59.7871 204.481 60.6704 205.408C61.8062 206.376 62.6472 207.555 63.5305 208.481C67.274 212.482 70.6804 216.945 73.8344 221.366C76.9884 225.786 79.8055 230.67 82.6647 235.301L82.6225 235.553C83.6738 237.027 85.6516 237.617 87.0829 236.819C88.809 235.809 89.1468 233.79 88.3902 232.106C85.3207 227.18 82.2089 222.507 78.8447 217.791C75.4804 213.075 71.8214 208.57 67.8677 204.275C66.732 203.307 65.8487 202.38 64.7129 201.412C63.6193 200.191 62.736 199.264 61.6003 198.296C60.1697 197.537 59.2865 196.611 57.8982 195.6C56.7202 194.884 55.3319 193.873 54.1539 193.157C53.3964 193.03 52.9336 192.693 52.2184 192.314C53.0603 191.936 54.1125 191.852 54.9122 191.726C60.3844 190.046 65.8987 188.113 71.2028 185.885ZM186.696 120.586L107.991 277.691L109.254 277.902L187.959 120.797L186.696 120.586Z" fill="white"/>
<path d="M405.428 175.581L402.136 188.48L419.86 220.481L381.817 254.63L378.335 268.272L429.782 223.014L405.428 175.581Z" fill="url(#paint4_linear_52_6)"/>
<defs>
<linearGradient id="paint0_linear_52_6" x1="200.999" y1="69.4341" x2="352.652" y2="224.892" gradientUnits="userSpaceOnUse">
<stop/>
<stop offset="1" stop-opacity="0"/>
</linearGradient>
<linearGradient id="paint1_linear_52_6" x1="336" y1="127" x2="377" y2="149" gradientUnits="userSpaceOnUse">
<stop stop-color="#DF2935"/>
<stop offset="1" stop-color="#DF2935" stop-opacity="0"/>
</linearGradient>
<linearGradient id="paint2_linear_52_6" x1="310" y1="127" x2="334" y2="143" gradientUnits="userSpaceOnUse">
<stop stop-color="#DF2935"/>
<stop offset="1" stop-color="#DF2935" stop-opacity="0"/>
</linearGradient>
<linearGradient id="paint3_linear_52_6" x1="261" y1="93" x2="311" y2="140" gradientUnits="userSpaceOnUse">
<stop stop-color="#DF2935"/>
<stop offset="1" stop-color="#DF2935" stop-opacity="0"/>
</linearGradient>
<linearGradient id="paint4_linear_52_6" x1="429.5" y1="223.5" x2="397.578" y2="220.353" gradientUnits="userSpaceOnUse">
<stop stop-color="white"/>
<stop offset="1" stop-color="white" stop-opacity="0"/>
</linearGradient>
</defs>
</svg>
